<?xml version="1.0" encoding="UTF-8" standalone="no"?>
<!DOCTYPE svg PUBLIC "-//W3C//DTD SVG 1.1//EN" "http://www.w3.org/Graphics/SVG/1.1/DTD/svg11.dtd">
<svg xmlns="http://www.w3.org/2000/svg" version="1.1" viewBox="0 0 1218 464">
<g stroke-width="2.00" fill="none" stroke-linecap="butt">
<path stroke="#00559a" vector-effect="non-scaling-stroke" d="
  M 722.25 138.54
  Q 729.96 146.37 736.79 155.20
  Q 737.60 156.25 737.83 154.94
  Q 742.43 128.93 746.04 102.60"
/>
<path stroke="#0063ac" vector-effect="non-scaling-stroke" d="
  M 972.25 176.96
  L 979.00 177.54"
/>
<path stroke="#006fb9" vector-effect="non-scaling-stroke" d="
  M 979.00 177.54
  Q 979.19 180.57 978.86 183.57
  Q 978.62 185.67 978.92 188.42
  Q 979.24 191.34 978.66 194.36
  A 0.53 0.53 7.6 0 0 979.15 194.99
  Q 980.58 195.09 981.25 196.21"
/>
<path stroke="#6b865b" vector-effect="non-scaling-stroke" d="
  M 981.25 196.21
  Q 957.23 193.24 935.69 204.69
  Q 922.66 211.61 913.31 222.34"
/>
<path stroke="#809b5b" vector-effect="non-scaling-stroke" d="
  M 913.31 222.34
  Q 896.56 239.62 892.43 263.58
  Q 890.13 276.91 893.25 288.50
  Q 900.77 316.43 926.22 326.50
  Q 935.47 330.17 945.67 330.67
  Q 961.72 331.45 977.08 324.98"
/>
<path stroke="#006fb9" vector-effect="non-scaling-stroke" d="
  M 977.08 324.98
  Q 978.60 332.84 977.94 341.81
  Q 977.84 343.08 979.00 343.79"
/>
<path stroke="#06498b" vector-effect="non-scaling-stroke" d="
  M 979.00 343.79
  Q 960.82 350.32 940.42 348.66
  A 0.52 0.49 -2.4 0 0 939.86 349.23
  L 941.29 357.50"
/>
<path stroke="#035093" vector-effect="non-scaling-stroke" d="
  M 944.77 382.14
  L 845.91 364.65
  A 0.83 0.80 2.0 0 1 845.24 363.95
  L 840.34 321.53
  Q 840.18 320.14 839.53 321.38
  L 826.57 346.32
  Q 826.16 347.09 825.75 346.33
  L 804.06 306.14
  Q 803.28 304.69 803.03 306.31
  L 798.56 335.55
  A 0.79 0.79 8.8 0 1 797.66 336.21
  L 710.54 322.50"
/>
<path stroke="#06498b" vector-effect="non-scaling-stroke" d="
  M 710.54 322.50
  L 717.25 281.49
  Q 717.37 280.79 716.75 281.14
  Q 686.79 298.10 651.45 302.35
  A 1.00 1.00 -3.2 0 0 650.56 303.34
  L 650.54 313.50"
/>
<path stroke="#035093" vector-effect="non-scaling-stroke" d="
  M 650.46 380.25
  L 532.21 321.75"
/>
<path stroke="#0066b4" vector-effect="non-scaling-stroke" d="
  M 532.21 321.75
  Q 531.93 317.98 532.50 314.28
  Q 532.87 311.86 532.50 309.59
  Q 531.94 306.12 532.00 303.00
  Q 532.04 300.56 534.25 299.96"
/>
<path stroke="#809b5b" vector-effect="non-scaling-stroke" d="
  M 534.25 299.96
  L 620.25 342.79"
/>
<path stroke="#6b865b" vector-effect="non-scaling-stroke" d="
  M 620.25 342.79
  L 629.18 347.44
  A 0.75 0.73 -76.5 0 0 630.25 346.77
  L 630.19 303.15
  A 1.10 1.10 2.9 0 0 629.20 302.06
  Q 613.35 300.51 598.73 294.30
  Q 570.53 282.31 554.76 255.07
  A 2.60 2.46 -2.9 0 0 553.51 254.00
  L 491.24 229.20"
/>
<path stroke="#809b5b" vector-effect="non-scaling-stroke" d="
  M 491.24 229.20
  L 549.25 167.79"
/>
<path stroke="#6b865b" vector-effect="non-scaling-stroke" d="
  M 549.25 167.79
  L 558.27 158.60
  A 0.53 0.52 44.2 0 0 558.25 157.86
  L 531.96 132.75"
/>
<path stroke="#0066b4" vector-effect="non-scaling-stroke" d="
  M 531.96 132.75
  Q 531.77 131.25 532.76 131.37
  A 0.45 0.40 4.5 0 0 533.26 130.99
  Q 533.47 120.89 533.99 110.81
  Q 534.08 109.08 535.29 109.53
  A 1.26 0.83 80.9 0 1 535.91 110.21
  Q 536.65 111.96 538.54 111.50"
/>
<path stroke="#06498b" vector-effect="non-scaling-stroke" d="
  M 571.00 140.04
  L 573.26 142.18
  A 0.66 0.55 -43.7 0 0 574.08 142.13
  L 584.10 133.39"
/>
<path stroke="#06498b" vector-effect="non-scaling-stroke" d="
  M 586.66 132.02
  Q 595.96 126.24 606.67 121.57
  A 0.39 0.39 58.1 0 0 606.81 120.96
  L 592.96 104.00"
/>
<path stroke="#006db9" vector-effect="non-scaling-stroke" d="
  M 592.96 104.00
  L 614.48 79.11
  A 0.91 0.86 -46.1 0 0 614.49 77.94
  L 609.25 72.21"
/>
<path stroke="#0065ae" vector-effect="non-scaling-stroke" d="
  M 613.50 67.21
  Q 617.13 68.62 620.06 71.70
  A 0.82 0.81 40.0 0 0 621.33 71.60
  Q 624.08 67.51 627.36 64.11
  Q 630.50 60.86 633.25 57.29"
/>
<path stroke="#005ea5" vector-effect="non-scaling-stroke" d="
  M 633.25 57.29
  L 644.14 44.84"
/>
<path stroke="#00559a" vector-effect="non-scaling-stroke" d="
  M 644.14 44.84
  L 655.46 31.86"
/>
<path stroke="#004e91" vector-effect="non-scaling-stroke" d="
  M 655.46 31.86
  Q 664.46 21.64 673.19 11.44
  Q 673.99 10.49 674.00 9.79"
/>
<path stroke="#eab700" vector-effect="non-scaling-stroke" d="
  M 1002.63 308.15
  Q 1013.84 292.52 1017.50 274.75
  Q 1022.50 250.51 1010.13 230.85
  Q 1004.66 222.15 996.62 216.28
  Q 987.45 209.58 976.36 206.86
  Q 967.26 204.62 956.50 205.50
  Q 932.77 207.46 913.31 222.34"
/>
<path stroke="#6b8259" vector-effect="non-scaling-stroke" d="
  M 531.96 132.75
  L 510.70 112.61
  A 0.49 0.47 39.1 0 0 509.98 112.67
  L 502.07 123.76"
/>
<path stroke="#809759" vector-effect="non-scaling-stroke" d="
  M 502.07 123.76
  L 461.04 181.00"
/>
<path stroke="#6b8259" vector-effect="non-scaling-stroke" d="
  M 461.04 181.00
  L 456.75 113.01
  A 0.50 0.49 79.9 0 0 456.12 112.56
  L 390.00 132.22
  A 0.61 0.56 -10.7 0 0 389.56 132.81
  L 389.96 139.00"
/>
<path stroke="#809759" vector-effect="non-scaling-stroke" d="
  M 389.96 139.00
  L 390.27 149.41
  A 0.77 0.76 82.1 0 0 391.22 150.13
  L 408.64 145.65
  A 0.44 0.43 80.6 0 1 409.18 146.04
  L 415.02 215.94
  A 1.43 1.40 -69.4 0 0 415.40 216.80
  Q 441.00 243.94 437.26 281.73
  Q 435.22 302.35 424.87 321.01
  Q 424.10 322.40 424.23 323.94
  L 427.01 356.81
  A 0.58 0.57 -6.2 0 0 427.66 357.33
  L 458.92 352.99"
/>
<path stroke="#6b8259" vector-effect="non-scaling-stroke" d="
  M 458.92 352.99
  L 468.00 351.74
  A 0.89 0.86 86.3 0 0 468.75 350.86
  L 468.44 267.94"
/>
<path stroke="#809759" vector-effect="non-scaling-stroke" d="
  M 468.44 267.94
  Q 468.22 266.88 469.32 267.43
  Q 501.84 283.58 534.25 299.96"
/>
<path stroke="#034c91" vector-effect="non-scaling-stroke" d="
  M 532.21 321.75
  L 489.00 300.47
  A 0.86 0.84 13.2 0 0 487.76 301.22
  L 487.87 320.81"
/>
<path stroke="#064588" vector-effect="non-scaling-stroke" d="
  M 486.48 370.10
  L 410.28 381.14
  A 0.47 0.45 -6.5 0 1 409.75 380.73
  L 406.47 345.65
  Q 406.41 345.00 405.94 345.46
  Q 379.91 370.56 345.24 373.97
  Q 334.65 375.01 325.28 373.72
  Q 303.09 370.68 285.53 355.99"
/>
<path stroke="#0a61b0" vector-effect="non-scaling-stroke" d="
  M 285.53 355.99
  Q 286.26 345.44 286.00 332.50
  Q 285.96 330.68 287.46 329.25"
/>
<path stroke="#809759" vector-effect="non-scaling-stroke" d="
  M 287.46 329.25
  Q 304.15 352.42 333.01 354.07
  Q 347.17 354.88 360.58 350.36
  Q 377.89 344.53 391.13 332.13"
/>
<path stroke="#6b8259" vector-effect="non-scaling-stroke" d="
  M 391.13 332.13
  Q 408.98 316.27 416.33 293.57
  Q 423.43 271.65 416.66 250.84
  Q 413.48 241.03 407.39 233.26
  Q 395.49 218.04 376.59 213.24
  Q 367.12 210.84 356.76 211.33
  Q 342.24 212.01 328.44 218.19
  Q 312.25 225.43 300.83 238.42"
/>
<path stroke="#809759" vector-effect="non-scaling-stroke" d="
  M 300.83 238.42
  Q 293.05 245.84 287.71 255.50"
/>
<path stroke="#0a61b0" vector-effect="non-scaling-stroke" d="
  M 287.71 255.50
  Q 285.74 255.23 285.90 253.38
  Q 286.00 252.18 286.00 252.12
  Q 285.82 198.94 286.00 145.75
  Q 286.01 143.61 287.04 142.25"
/>
<path stroke="#064588" vector-effect="non-scaling-stroke" d="
  M 371.50 195.21
  Q 382.27 197.30 392.51 201.25
  A 0.35 0.35 -81.8 0 0 392.99 200.89
  L 390.40 172.36
  A 0.61 0.60 80.4 0 0 389.66 171.83
  Q 382.08 173.70 374.20 175.82
  Q 371.83 176.46 368.44 178.19
  Q 357.83 183.59 352.69 186.63"
/>
<path stroke="#005da6" vector-effect="non-scaling-stroke" d="
  M 350.54 170.25
  L 350.87 171.77
  Q 350.97 172.26 351.32 171.86
  Q 353.20 169.68 355.00 169.75
  Q 359.08 169.90 360.50 169.50
  Q 364.17 168.45 368.00 168.76
  Q 371.47 169.03 371.00 165.25
  Q 370.61 162.15 370.31 149.05"
/>
<path stroke="#005299" vector-effect="non-scaling-stroke" d="
  M 370.31 149.05
  L 369.46 133.00"
/>
<path stroke="#004a8e" vector-effect="non-scaling-stroke" d="
  M 369.46 133.00
  L 368.71 117.25"
/>
<path stroke="#064588" vector-effect="non-scaling-stroke" d="
  M 479.04 97.25
  L 478.50 125.81
  Q 478.48 126.80 478.94 125.92
  L 502.33 81.33
  A 0.95 0.22 75.9 0 0 502.32 80.66
  L 502.25 80.29"
/>
<path stroke="#004989" vector-effect="non-scaling-stroke" d="
  M 644.14 44.84
  Q 641.62 41.29 638.00 39.21"
/>
<path stroke="#064e8e" vector-effect="non-scaling-stroke" d="
  M 1104.75 146.29
  L 1110.25 173.77
  Q 1110.51 175.02 1110.79 173.78
  L 1118.91 138.56"
/>
<path stroke="#035496" vector-effect="non-scaling-stroke" d="
  M 1122.97 432.62
  L 1054.53 411.09
  A 1.13 1.11 -81.8 0 1 1053.75 410.03
  L 1053.31 384.15
  A 0.61 0.59 3.4 0 0 1052.78 383.57
  L 987.29 374.25"
/>
<path stroke="#194998" vector-effect="non-scaling-stroke" d="
  M 987.29 374.25
  L 990.88 339.81
  A 0.55 0.49 -84.6 0 0 990.44 339.21
  Q 989.36 339.11 988.64 340.25"
/>
<path stroke="#064e8e" vector-effect="non-scaling-stroke" d="
  M 988.64 340.25
  L 979.00 343.79"
/>
<path stroke="#80a05e" vector-effect="non-scaling-stroke" d="
  M 977.08 324.98
  Q 991.55 319.20 1002.63 308.15"
/>
<path stroke="#6b8a5e" vector-effect="non-scaling-stroke" d="
  M 1002.63 308.15
  Q 1021.02 291.31 1026.53 267.85
  Q 1028.91 257.75 1028.36 248.01
  Q 1026.63 217.52 998.69 201.81
  Q 992.24 198.19 981.25 196.21"
/>
<path stroke="#0068af" vector-effect="non-scaling-stroke" d="
  M 979.00 177.54
  Q 980.28 177.33 981.50 177.71"
/>
<path stroke="#064e8e" vector-effect="non-scaling-stroke" d="
  M 981.50 177.71
  Q 989.98 179.22 998.21 181.75"
/>
<path stroke="#194998" vector-effect="non-scaling-stroke" d="
  M 998.21 181.75
  L 1007.68 186.06
  A 0.38 0.36 16.1 0 0 1008.21 185.79
  L 1009.33 175.89"
/>
<path stroke="#064e8e" vector-effect="non-scaling-stroke" d="
  M 1009.33 175.89
  L 993.25 171.71"
/>
<path stroke="#0068af" vector-effect="non-scaling-stroke" d="
  M 993.25 171.71
  L 992.67 161.94"
/>
<path stroke="#005ea2" vector-effect="non-scaling-stroke" d="
  M 992.67 161.94
  L 992.21 135.50"
/>
<path stroke="#005294" vector-effect="non-scaling-stroke" d="
  M 992.21 135.50
  Q 992.56 123.32 991.78 110.46"
/>
<path stroke="#eab700" vector-effect="non-scaling-stroke" d="
  M 549.25 167.79
  Q 526.25 145.29 502.07 123.76"
/>
<path stroke="#003975" vector-effect="non-scaling-stroke" d="
  M 655.46 31.86
  Q 652.75 28.22 648.50 27.21"
/>
<path stroke="#eab700" vector-effect="non-scaling-stroke" d="
  M 491.24 229.20
  L 482.65 238.50
  A 0.62 0.62 -58.1 0 0 482.88 239.50
  L 544.03 263.96
  A 2.31 2.26 85.5 0 1 545.12 264.91
  Q 557.06 285.71 576.83 297.61
  Q 596.20 309.28 619.66 311.85
  A 0.76 0.75 -88.2 0 1 620.33 312.57
  Q 620.83 327.49 620.25 342.79"
/>
<path stroke="#eab700" vector-effect="non-scaling-stroke" d="
  M 468.44 267.94
  L 459.53 276.44
  A 2.04 1.64 72.3 0 0 459.00 277.81
  L 458.92 352.99"
/>
<path stroke="#00599d" vector-effect="non-scaling-stroke" d="
  M 633.25 57.29
  L 627.00 51.71"
/>
<path stroke="#064280" vector-effect="non-scaling-stroke" d="
  M 993.25 171.71
  L 981.50 177.71"
/>
<path stroke="#082f68" vector-effect="non-scaling-stroke" d="
  M 710.54 322.50
  Q 698.94 328.87 693.56 331.31
  Q 692.08 331.99 692.00 333.21"
/>
<path stroke="#064c8d" vector-effect="non-scaling-stroke" d="
  M 592.96 104.00
  Q 583.51 109.26 573.48 113.34"
/>
<path stroke="#004d8e" vector-effect="non-scaling-stroke" d="
  M 370.31 149.05
  Q 360.73 151.80 350.57 152.84
  A 0.48 0.48 -7.7 0 0 350.14 153.40
  Q 350.36 154.58 349.75 154.54"
/>
<path stroke="#eab700" vector-effect="non-scaling-stroke" d="
  M 391.13 332.13
  Q 404.40 315.41 408.70 294.49
  Q 411.48 280.97 408.79 267.44
  Q 406.01 253.44 397.48 242.65
  Q 392.17 235.93 384.89 231.08
  Q 377.61 226.22 369.25 223.66
  Q 360.36 220.94 349.52 221.18
  Q 322.80 221.78 300.83 238.42"
/>
<path stroke="#003a76" vector-effect="non-scaling-stroke" d="
  M 369.46 133.00
  L 368.82 134.95
  A 0.90 0.65 -1.7 0 1 368.18 135.44
  L 362.97 136.55
  Q 362.17 136.72 362.00 136.70
  Q 357.33 136.34 353.00 138.00
  Q 352.02 138.38 349.80 138.33
  A 0.69 0.43 -75.8 0 0 349.30 138.81
  L 349.04 139.50"
/>
<path stroke="#899657" vector-effect="non-scaling-stroke" d="
  M 287.71 255.50
  Q 281.52 266.34 278.74 278.50
  Q 272.48 305.90 287.46 329.25"
/>
<path stroke="#0f4487" vector-effect="non-scaling-stroke" d="
  M 285.53 355.99
  Q 277.58 349.21 271.96 341.00"
/>
<path stroke="#0a488d" vector-effect="non-scaling-stroke" d="
  M 271.96 341.00
  Q 265.95 331.67 262.25 321.21"
/>
<path stroke="#0a5198" vector-effect="non-scaling-stroke" d="
  M 262.25 321.21
  Q 257.21 304.72 258.88 286.08
  Q 258.95 285.22 258.34 285.82
  Q 249.47 294.31 240.91 300.62
  A 1.68 1.66 -25.8 0 0 240.28 302.39
  L 247.46 330.00"
/>
<path stroke="#0a488d" vector-effect="non-scaling-stroke" d="
  M 247.46 330.00
  L 252.00 347.29"
/>
<path stroke="#0f4487" vector-effect="non-scaling-stroke" d="
  M 266.17 413.00
  L 186.69 438.27
  A 0.57 0.57 69.0 0 1 186.00 437.96
  L 175.79 415.25"
/>
<path stroke="#899657" vector-effect="non-scaling-stroke" d="
  M 178.96 369.25
  L 197.72 411.05
  A 1.02 1.01 68.7 0 0 198.96 411.60
  L 231.48 401.16"
/>
<path stroke="#748057" vector-effect="non-scaling-stroke" d="
  M 231.48 401.16
  L 242.03 397.74
  A 0.66 0.66 73.9 0 0 242.47 396.94
  L 215.06 292.17"
/>
<path stroke="#899657" vector-effect="non-scaling-stroke" d="
  M 215.06 292.17
  Q 236.72 278.55 254.00 259.29"
/>
<path stroke="#748057" vector-effect="non-scaling-stroke" d="
  M 254.00 259.29
  Q 268.61 242.82 276.89 222.42
  Q 281.86 210.18 282.79 197.00
  Q 283.88 181.68 277.43 167.81
  Q 270.99 153.98 259.46 144.02
  Q 238.43 125.87 210.75 122.50
  Q 194.45 120.51 185.75 120.46"
/>
<path stroke="#eab700" vector-effect="non-scaling-stroke" d="
  M 461.04 181.00
  L 451.55 194.08
  Q 451.28 194.46 451.25 193.98
  L 447.01 122.74
  A 0.56 0.56 -9.9 0 0 446.29 122.24
  L 389.96 139.00"
/>
<path stroke="#005295" vector-effect="non-scaling-stroke" d="
  M 992.67 161.94
  Q 984.25 164.47 976.50 163.50
  Q 974.10 163.20 973.09 164.56
  Q 972.50 165.36 972.51 167.58
  Q 972.52 171.04 972.46 174.50"
/>
<path stroke="#1c2a72" vector-effect="non-scaling-stroke" d="
  M 987.29 374.25
  L 967.28 385.12"
/>
<path stroke="#1f2369" vector-effect="non-scaling-stroke" d="
  M 970.70 350.11
  Q 980.02 346.03 988.64 340.25"
/>
<path stroke="#1f2369" vector-effect="non-scaling-stroke" d="
  M 1009.33 175.89
  L 998.21 181.75"
/>
<path stroke="#003d7a" vector-effect="non-scaling-stroke" d="
  M 992.21 135.50
  Q 988.82 136.79 983.75 136.00
  Q 979.02 135.26 972.03 137.17"
/>
<path stroke="#062d65" vector-effect="non-scaling-stroke" d="
  M 271.96 341.00
  L 254.21 350.25"
/>
<path stroke="#003a76" vector-effect="non-scaling-stroke" d="
  M 262.25 321.21
  Q 260.35 320.29 258.25 321.50
  Q 256.11 322.73 254.01 324.04
  Q 253.93 324.09 250.80 325.57
  Q 248.12 326.83 247.46 330.00"
/>
<path stroke="#eab700" vector-effect="non-scaling-stroke" d="
  M 215.06 292.17
  L 205.15 299.07
  A 1.05 1.02 65.3 0 0 204.75 300.19
  L 231.48 401.16"
/>
<path stroke="#eab700" vector-effect="non-scaling-stroke" d="
  M 254.00 259.29
  Q 253.05 259.19 253.75 258.25
  Q 262.06 246.97 267.75 232.25
  Q 272.38 220.30 273.21 207.50
  Q 274.05 194.72 270.25 183.75
  Q 264.61 167.46 251.20 155.29
  Q 236.86 142.27 218.88 136.20
  Q 210.73 133.44 199.37 131.93
  Q 161.64 126.92 124.51 136.79
  Q 86.94 146.79 52.62 165.46"
/>
<path stroke="#185ead" vector-effect="non-scaling-stroke" d="
  M 178.25 98.79
  Q 178.32 99.24 178.70 99.32
  Q 178.97 99.38 178.75 99.55
  Q 178.26 99.92 178.36 100.53
  Q 178.50 101.48 178.50 101.50
  Q 178.54 108.74 178.45 115.97
  Q 178.45 116.43 178.06 117.82
  Q 177.78 118.85 178.26 119.83
  A 0.91 0.66 -7.5 0 0 179.00 120.23
  L 185.75 120.46"
/>
<path stroke="#797f56" vector-effect="non-scaling-stroke" d="
  M 185.75 120.46
  Q 156.98 120.52 129.30 128.26
  Q 88.03 139.81 51.74 162.55
  A 0.79 0.65 -24.4 0 0 51.37 163.31
  Q 51.60 164.22 52.62 165.46"
/>
<path stroke="#8e9456" vector-effect="non-scaling-stroke" d="
  M 52.62 165.46
  L 83.80 218.16
  A 0.75 0.73 61.7 0 0 84.76 218.46
  L 105.82 208.12
  A 0.87 0.85 -25.1 0 1 106.99 208.53
  L 178.96 369.25"
/>
<path stroke="#185ead" vector-effect="non-scaling-stroke" d="
  M 178.96 369.25
  Q 177.93 369.62 177.94 371.44
  Q 178.04 392.58 178.00 413.72
  Q 178.00 414.71 177.63 415.17
  Q 176.94 416.01 175.79 415.25"
/>
<path stroke="#144286" vector-effect="non-scaling-stroke" d="
  M 175.79 415.25
  L 138.91 332.72"
/>
<path stroke="#0f478c" vector-effect="non-scaling-stroke" d="
  M 138.91 332.72
  L 130.42 313.60"
/>
<path stroke="#0f4a90" vector-effect="non-scaling-stroke" d="
  M 130.42 313.60
  L 123.05 297.23"
/>
<path stroke="#0f4f97" vector-effect="non-scaling-stroke" d="
  M 123.05 297.23
  L 113.46 275.75"
/>
<path stroke="#0f549c" vector-effect="non-scaling-stroke" d="
  M 113.46 275.75
  L 107.71 263.00"
/>
<path stroke="#0f58a2" vector-effect="non-scaling-stroke" d="
  M 107.71 263.00
  L 96.51 237.39
  A 0.80 0.76 -24.2 0 0 95.46 237.02
  L 75.42 246.23"
/>
<path stroke="#0f62ae" vector-effect="non-scaling-stroke" d="
  M 75.42 246.23
  L 59.79 220.00"
/>
<path stroke="#0f57a0" vector-effect="non-scaling-stroke" d="
  M 59.79 220.00
  L 47.00 198.71"
/>
<path stroke="#0f4e95" vector-effect="non-scaling-stroke" d="
  M 47.00 198.71
  L 35.04 178.50"
/>
<path stroke="#0f478c" vector-effect="non-scaling-stroke" d="
  M 35.04 178.50
  L 26.04 163.25"
/>
<path stroke="#144286" vector-effect="non-scaling-stroke" d="
  M 26.04 163.25
  L 21.89 156.02"
/>
<path stroke="#062d65" vector-effect="non-scaling-stroke" d="
  M 138.91 332.72
  L 121.53 339.62
  Q 121.11 339.79 120.76 340.21
  Q 118.96 342.40 116.75 340.29"
/>
<path stroke="#004786" vector-effect="non-scaling-stroke" d="
  M 113.46 275.75
  Q 110.76 276.48 108.31 277.77
  Q 104.78 279.62 103.38 280.23
  Q 100.40 281.50 97.55 283.04
  Q 95.15 284.34 92.64 285.73"
/>
<path stroke="#004989" vector-effect="non-scaling-stroke" d="
  M 47.00 198.71
  Q 42.90 202.03 37.00 204.50
  Q 32.07 206.56 27.50 210.79"
/>
<path stroke="#003975" vector-effect="non-scaling-stroke" d="
  M 35.04 178.50
  Q 34.51 180.65 32.49 181.49
  Q 24.59 184.78 17.48 189.53
  Q 17.17 189.74 16.86 190.26
  Q 16.41 191.01 15.57 190.71"
/>
<path stroke="#005092" vector-effect="non-scaling-stroke" d="
  M 107.71 263.00
  L 89.54 270.14
  Q 89.12 270.30 88.74 270.71
  Q 87.50 272.00 86.04 270.50"
/>
<path stroke="#062d65" vector-effect="non-scaling-stroke" d="
  M 26.04 163.25
  Q 26.45 166.05 24.81 166.81
  Q 15.63 171.09 6.93 176.21"
/>
<path stroke="#005ea4" vector-effect="non-scaling-stroke" d="
  M 75.42 246.23
  L 60.29 263.04"
/>
<path stroke="#003d7b" vector-effect="non-scaling-stroke" d="
  M 123.05 297.23
  Q 121.40 297.08 119.44 298.44
  Q 112.28 303.39 101.79 306.49"
/>
<path stroke="#003570" vector-effect="non-scaling-stroke" d="
  M 130.42 313.60
  Q 120.26 316.50 111.01 321.57
  A 0.97 0.79 42.0 0 1 110.16 321.53
  Q 109.38 321.10 108.46 321.50"
/>
<path stroke="#005da2" vector-effect="non-scaling-stroke" d="
  M 59.79 220.00
  Q 60.31 221.41 59.29 221.73
  Q 57.98 222.12 57.91 222.16
  Q 48.97 226.99 40.09 232.13"
/>
<path stroke="#809b5b" vector-effect="non-scaling-stroke" d="
  M 662.58 50.56
  L 622.84 98.38
  A 0.99 0.86 -43.8 0 0 622.74 99.48
  L 626.92 105.63
  A 0.65 0.55 -29.4 0 0 627.70 105.78
  L 683.29 78.25"
/>
<path stroke="#6b865b" vector-effect="non-scaling-stroke" d="
  M 683.29 78.25
  L 695.29 72.38
  A 0.56 0.55 -30.9 0 0 695.50 71.55
  L 672.05 39.89
  A 0.40 0.39 46.7 0 0 671.43 39.87
  L 662.58 50.56"
/>
<path stroke="#eab700" vector-effect="non-scaling-stroke" d="
  M 683.29 78.25
  Q 673.83 63.83 662.58 50.56"
/>
<path stroke="#809b5b" vector-effect="non-scaling-stroke" d="
  M 843.29 120.25
  L 830.34 192.41"
/>
<path stroke="#6b865b" vector-effect="non-scaling-stroke" d="
  M 830.34 192.41
  L 817.32 122.90
  A 1.02 1.02 84.9 0 0 816.32 122.06
  L 765.96 122.00
  A 1.04 1.01 4.6 0 0 764.94 122.85
  L 763.50 131.57"
/>
<path stroke="#809b5b" vector-effect="non-scaling-stroke" d="
  M 763.50 131.57
  L 747.90 224.35
  A 1.15 1.14 26.0 0 0 748.26 225.38
  L 763.41 238.96
  A 0.82 0.80 43.1 0 1 763.46 240.13
  L 742.10 261.90
  A 1.68 1.51 -20.6 0 0 741.66 262.75
  L 734.45 305.08
  A 0.53 0.52 9.9 0 0 734.88 305.68
  L 777.87 313.11"
/>
<path stroke="#6b865b" vector-effect="non-scaling-stroke" d="
  M 777.87 313.11
  L 785.16 314.44
  A 0.66 0.65 -80.3 0 0 785.93 313.89
  L 797.77 239.19"
/>
<path stroke="#809b5b" vector-effect="non-scaling-stroke" d="
  M 797.77 239.19
  Q 797.69 238.33 798.19 237.77
  A 0.38 0.34 54.0 0 1 798.78 237.90
  L 826.22 296.57"
/>
<path stroke="#6b865b" vector-effect="non-scaling-stroke" d="
  M 826.22 296.57
  L 829.07 302.95
  Q 829.53 303.98 829.94 302.92
  L 850.28 251.19"
/>
<path stroke="#809b5b" vector-effect="non-scaling-stroke" d="
  M 850.28 251.19
  L 864.86 346.74
  A 1.00 0.99 89.9 0 0 865.69 347.58
  L 908.25 353.96"
/>
<path stroke="#6b865b" vector-effect="non-scaling-stroke" d="
  M 908.25 353.96
  L 919.19 355.65
  A 0.41 0.41 89.9 0 0 919.65 355.19
  L 917.77 343.46
  A 1.40 1.25 9.6 0 0 916.99 342.49
  Q 907.65 338.25 900.05 332.12
  Q 892.64 326.14 886.76 317.65
  Q 871.12 295.04 873.26 267.23
  Q 874.02 257.44 877.12 247.65
  Q 883.40 227.86 897.30 211.81
  A 1.15 1.12 -29.7 0 0 897.56 210.90
  L 882.19 111.41
  A 0.78 0.78 -4.3 0 0 881.42 110.75
  L 845.81 110.75
  A 1.14 1.11 4.4 0 0 844.69 111.68
  L 843.29 120.25"
/>
<path stroke="#eab700" vector-effect="non-scaling-stroke" d="
  M 908.25 353.96
  Q 908.26 352.28 906.91 351.82
  Q 905.82 351.45 905.76 351.43
  Q 879.49 338.71 868.99 312.67
  Q 865.26 303.40 863.92 293.38
  Q 862.10 279.65 865.00 266.50
  Q 870.62 241.05 887.44 221.72
  A 1.82 1.79 -29.1 0 0 887.87 220.25
  L 872.51 121.06
  A 0.59 0.58 -3.4 0 0 871.94 120.56
  L 843.29 120.25"
/>
<path stroke="#eab700" vector-effect="non-scaling-stroke" d="
  M 850.28 251.19
  Q 849.17 251.23 847.69 252.94
  Q 844.90 256.14 841.47 259.39
  Q 840.86 259.97 840.53 260.78
  L 826.22 296.57"
/>
<path stroke="#eab700" vector-effect="non-scaling-stroke" d="
  M 797.77 239.19
  Q 792.92 241.51 789.80 245.59
  Q 788.36 247.48 787.91 250.46
  Q 783.15 281.77 777.87 313.11"
/>
<path stroke="#eab700" vector-effect="non-scaling-stroke" d="
  M 763.50 131.57
  L 806.87 131.75
  A 0.72 0.71 -5.3 0 1 807.58 132.33
  L 820.19 201.76
  Q 820.39 202.83 821.19 202.10
  Q 826.93 196.89 830.34 192.41"
/>
<path stroke="#809b5b" vector-effect="non-scaling-stroke" d="
  M 583.99 162.26
  Q 561.62 186.73 565.75 221.50
  Q 568.81 247.29 587.31 262.94
  Q 603.27 276.44 623.94 280.07
  Q 638.53 282.63 652.00 281.00
  Q 675.03 278.22 697.03 267.81
  Q 710.91 261.24 722.86 251.14"
/>
<path stroke="#6b865b" vector-effect="non-scaling-stroke" d="
  M 722.86 251.14
  Q 728.01 247.07 732.43 241.88
  A 0.52 0.51 41.4 0 0 732.38 241.16
  L 698.37 210.58
  A 0.52 0.49 -46.6 0 0 697.67 210.62
  L 688.36 220.06"
/>
<path stroke="#809b5b" vector-effect="non-scaling-stroke" d="
  M 688.36 220.06
  L 684.91 223.21"
/>
<path stroke="#6b865b" vector-effect="non-scaling-stroke" d="
  M 684.91 223.21
  Q 668.16 234.00 648.46 233.25"
/>
<path stroke="#809b5b" vector-effect="non-scaling-stroke" d="
  M 648.46 233.25
  L 705.68 171.98"
/>
<path stroke="#6b865b" vector-effect="non-scaling-stroke" d="
  M 705.68 171.98
  L 714.68 162.13
  A 0.59 0.57 45.9 0 0 714.68 161.37
  Q 696.35 139.23 667.77 134.39
  Q 657.80 132.70 647.00 133.50
  Q 623.96 135.20 604.19 146.19
  Q 592.33 152.78 583.99 162.26"
/>
<path stroke="#eab700" vector-effect="non-scaling-stroke" d="
  M 705.68 171.98
  Q 683.90 145.54 651.00 143.25
  Q 614.93 140.74 583.99 162.26"
/>
<path stroke="#eab700" vector-effect="non-scaling-stroke" d="
  M 648.46 233.25
  L 639.24 242.76
  Q 638.52 243.50 639.56 243.50
  Q 667.12 243.41 684.91 223.21"
/>
<path stroke="#eab700" vector-effect="non-scaling-stroke" d="
  M 688.36 220.06
  L 722.86 251.14"
/>
<path stroke="#06498b" vector-effect="non-scaling-stroke" d="
  M 734.22 174.85
  L 715.30 195.07
  A 0.35 0.35 42.8 0 0 715.32 195.57
  L 728.81 207.62
  Q 729.19 207.95 729.27 207.44
  L 734.52 175.00
  Q 734.61 174.44 734.22 174.85"
/>
<path stroke="#80a05e" vector-effect="non-scaling-stroke" d="
  M 1011.04 147.50
  L 1010.70 155.06
  A 0.64 0.63 -81.5 0 0 1011.17 155.70
  L 1025.33 159.52
  A 1.23 1.21 10.4 0 1 1026.24 160.81
  L 1022.95 195.23
  A 3.14 3.12 -64.9 0 0 1023.84 197.71
  Q 1044.34 218.38 1046.06 247.01
  Q 1046.96 261.94 1043.50 274.25
  Q 1035.15 303.94 1011.41 325.13
  A 3.00 2.97 72.1 0 0 1010.42 327.09
  L 1007.68 356.44
  A 0.70 0.68 -83.2 0 0 1008.25 357.18
  L 1041.27 362.41"
/>
<path stroke="#6b8a5e" vector-effect="non-scaling-stroke" d="
  M 1041.27 362.41
  L 1048.38 363.61
  A 0.87 0.87 -80.3 0 0 1049.38 362.90
  Q 1058.49 311.92 1067.31 261.56
  Q 1067.89 258.28 1068.47 256.44"
/>
<path stroke="#80a05e" vector-effect="non-scaling-stroke" d="
  M 1068.47 256.44
  L 1071.77 394.57
  A 1.85 1.83 -82.5 0 0 1073.08 396.30
  L 1104.06 405.49"
/>
<path stroke="#6b8a5e" vector-effect="non-scaling-stroke" d="
  M 1104.06 405.49
  L 1109.34 406.97
  A 0.82 0.76 -72.7 0 0 1110.28 406.43
  L 1186.73 175.07
  A 0.67 0.66 -74.7 0 0 1186.25 174.22
  L 1133.41 162.51
  A 0.95 0.95 13.5 0 0 1132.28 163.20
  L 1129.52 173.85"
/>
<path stroke="#80a05e" vector-effect="non-scaling-stroke" d="
  M 1129.52 173.85
  L 1107.54 264.25"
/>
<path stroke="#6b8a5e" vector-effect="non-scaling-stroke" d="
  M 1107.54 264.25
  L 1083.54 151.05
  A 0.78 0.77 89.4 0 0 1082.94 150.46
  L 1012.72 136.30
  A 0.97 0.96 -82.8 0 0 1011.57 137.20
  L 1011.04 147.50"
/>
<path stroke="#eab700" vector-effect="non-scaling-stroke" d="
  M 1107.54 264.25
  Q 1103.43 269.61 1098.20 273.88
  A 0.31 0.30 65.4 0 1 1097.71 273.69
  L 1073.89 160.71
  A 0.92 0.92 89.5 0 0 1073.18 160.01
  L 1011.04 147.50"
/>
<path stroke="#eab700" vector-effect="non-scaling-stroke" d="
  M 1129.52 173.85
  L 1176.27 183.87
  A 0.88 0.88 -74.5 0 1 1176.91 185.01
  L 1104.06 405.49"
/>
<path stroke="#eab700" vector-effect="non-scaling-stroke" d="
  M 1068.47 256.44
  Q 1063.94 259.22 1060.04 263.77
  Q 1058.70 265.35 1058.33 267.44
  L 1041.27 362.41"
/>
<path stroke="#eab700" vector-effect="non-scaling-stroke" d="
  M 183.79 189.50
  L 182.94 187.96
  A 0.34 0.29 50.6 0 0 182.42 187.87
  L 176.27 195.84
  A 1.09 0.90 58.8 0 0 176.14 196.73
  Q 187.09 235.18 199.41 273.22
  A 0.45 0.45 -20.6 0 0 200.02 273.49
  Q 204.77 271.36 206.93 267.94"
/>
<path stroke="#919356" vector-effect="non-scaling-stroke" d="
  M 206.93 267.94
  Q 213.06 264.01 221.06 257.81
  Q 227.37 252.94 232.23 247.41
  Q 237.71 241.18 240.52 234.74
  Q 245.17 224.07 243.76 212.36
  Q 242.86 204.89 239.87 199.57
  Q 236.45 193.49 230.44 189.56
  Q 221.80 183.91 211.00 183.25
  Q 197.67 182.43 183.79 189.50"
/>
<path stroke="#7c7e56" vector-effect="non-scaling-stroke" d="
  M 206.93 267.94
  Q 197.42 239.13 183.25 191.50
  Q 182.83 190.09 183.79 189.50"
/>
<path stroke="#eab700" vector-effect="non-scaling-stroke" d="
  M 614.00 175.54
  Q 612.48 174.74 613.37 173.45
  Q 613.59 173.14 613.30 173.38
  Q 597.52 186.28 596.84 205.62
  Q 596.52 214.70 599.77 222.52
  Q 603.10 230.54 609.59 237.09
  A 0.67 0.59 49.3 0 0 610.40 237.20
  L 617.29 232.25"
/>
<path stroke="#80995a" vector-effect="non-scaling-stroke" d="
  M 617.29 232.25
  Q 619.32 234.74 620.94 232.62
  Q 621.71 231.61 621.75 231.56
  Q 645.71 204.35 669.67 177.12
  A 0.56 0.55 44.6 0 0 669.66 176.38
  Q 659.86 165.80 646.25 164.25
  Q 627.64 162.13 614.00 175.54"
/>
<path stroke="#6b845a" vector-effect="non-scaling-stroke" d="
  M 617.29 232.25
  Q 603.05 220.07 603.00 202.25
  Q 602.96 187.29 614.00 175.54"
/>
<path stroke="#3f738e" vector-effect="non-scaling-stroke" d="
  M 647.23 182.65
  L 649.22 179.51
  A 0.42 0.38 24.0 0 0 648.96 178.92
  Q 633.86 174.43 623.09 185.83"
/>
<path stroke="#506d89" vector-effect="non-scaling-stroke" d="
  M 225.71 227.50
  Q 228.13 222.23 227.50 214.50
  Q 226.88 206.80 221.44 203.06
  Q 214.56 198.33 204.75 199.75
  Q 202.13 200.13 203.21 201.84
  Q 203.41 202.17 203.56 202.75
  L 204.43 206.08"
/>
<path stroke="#eab700" vector-effect="non-scaling-stroke" d="
  M 935.86 221.90
  Q 930.59 225.55 925.81 232.81
  Q 913.24 251.91 923.57 269.05
  Q 927.60 275.73 934.04 279.90
  Q 940.70 284.22 948.52 285.43
  Q 958.25 286.94 968.13 283.10
  Q 980.40 278.33 988.64 267.16"
/>
<path stroke="#80995a" vector-effect="non-scaling-stroke" d="
  M 988.64 267.16
  Q 999.51 256.75 999.75 242.25
  Q 999.88 234.55 995.25 226.98"
/>
<path stroke="#eab700" vector-effect="non-scaling-stroke" d="
  M 995.25 226.98
  Q 995.16 225.73 993.81 226.81
  Q 991.07 229.01 985.34 235.14
  A 0.99 0.94 62.8 0 0 985.09 235.99
  Q 985.96 241.35 984.29 246.50"
/>
<path stroke="#80995a" vector-effect="non-scaling-stroke" d="
  M 984.29 246.50
  Q 969.25 253.35 957.69 242.81
  Q 948.47 234.41 953.54 222.25"
/>
<path stroke="#eab700" vector-effect="non-scaling-stroke" d="
  M 953.54 222.25
  L 962.20 220.04
  A 2.02 1.24 3.8 0 0 963.06 219.59
  L 971.36 210.94
  A 0.34 0.32 -60.3 0 0 971.23 210.39
  Q 970.74 210.27 970.32 210.44"
/>
<path stroke="#80995a" vector-effect="non-scaling-stroke" d="
  M 970.32 210.44
  Q 949.84 207.25 935.86 221.90"
/>
<path stroke="#6b845a" vector-effect="non-scaling-stroke" d="
  M 970.32 210.44
  Q 958.89 212.25 953.54 222.25"
/>
<path stroke="#6b845a" vector-effect="non-scaling-stroke" d="
  M 984.29 246.50
  Q 995.95 240.40 995.25 226.98"
/>
<path stroke="#6b845a" vector-effect="non-scaling-stroke" d="
  M 988.64 267.16
  Q 972.54 279.30 954.36 274.43
  Q 946.61 272.35 940.99 267.95
  Q 934.77 263.08 931.56 255.94
  Q 923.42 237.82 935.86 221.90"
/>
<path stroke="#8c9557" vector-effect="non-scaling-stroke" d="
  M 338.52 231.50
  Q 332.82 234.30 328.47 238.72"
/>
<path stroke="#eab700" vector-effect="non-scaling-stroke" d="
  M 328.47 238.72
  Q 322.88 242.01 318.19 248.44
  Q 313.56 254.77 311.58 261.62
  Q 309.54 268.67 310.98 275.98
  Q 313.41 288.31 323.81 295.94
  Q 340.22 307.97 360.16 300.61
  Q 373.07 295.84 380.69 284.43"
/>
<path stroke="#809e5e" vector-effect="non-scaling-stroke" d="
  M 380.69 284.43
  Q 387.21 277.79 389.81 269.56
  Q 394.22 255.65 386.14 243.23"
/>
<path stroke="#eab700" vector-effect="non-scaling-stroke" d="
  M 386.14 243.23
  Q 386.05 242.91 385.81 242.64
  A 0.53 0.47 -43.2 0 0 385.08 242.66
  L 376.60 250.80
  A 2.19 2.15 -26.8 0 0 375.95 252.73
  Q 376.87 258.18 375.93 263.48"
/>
<path stroke="#809e5e" vector-effect="non-scaling-stroke" d="
  M 375.93 263.48
  Q 371.47 265.86 366.21 266.50"
/>
<path stroke="#809859" vector-effect="non-scaling-stroke" d="
  M 366.21 266.50
  Q 350.18 266.98 344.06 253.44
  Q 340.91 246.47 345.00 238.96"
/>
<path stroke="#eab700" vector-effect="non-scaling-stroke" d="
  M 345.00 238.96
  Q 348.10 238.82 352.22 237.42
  Q 352.71 237.25 353.11 236.92
  Q 357.92 232.80 361.30 228.51
  Q 361.53 228.21 361.61 227.95
  Q 361.87 227.01 360.60 227.86"
/>
<path stroke="#809859" vector-effect="non-scaling-stroke" d="
  M 360.60 227.86
  Q 348.74 226.20 338.52 231.50"
/>
<path stroke="#6b8359" vector-effect="non-scaling-stroke" d="
  M 360.60 227.86
  Q 350.33 230.00 345.00 238.96"
/>
<path stroke="#006ab7" vector-effect="non-scaling-stroke" d="
  M 366.21 266.50
  Q 366.40 267.16 366.87 267.66
  A 0.56 0.53 -49.1 0 1 366.90 268.36
  Q 366.34 269.13 366.50 270.50
  Q 366.84 273.37 366.58 277.18
  Q 366.36 280.28 366.58 283.82
  Q 366.83 287.88 366.35 292.00"
/>
<path stroke="#6b8359" vector-effect="non-scaling-stroke" d="
  M 366.35 292.00
  Q 349.86 296.37 335.71 287.75"
/>
<path stroke="#0d61b0" vector-effect="non-scaling-stroke" d="
  M 335.71 287.75
  Q 336.30 277.83 336.04 267.91
  Q 335.84 259.97 336.08 253.59
  Q 336.47 243.19 336.00 239.25
  Q 335.40 234.24 338.52 231.50"
/>
<path stroke="#6b895e" vector-effect="non-scaling-stroke" d="
  M 366.35 292.00
  Q 373.97 289.55 380.69 284.43"
/>
<path stroke="#777f57" vector-effect="non-scaling-stroke" d="
  M 335.71 287.75
  Q 319.54 277.27 320.00 258.75
  Q 320.26 248.02 328.47 238.72"
/>
<path stroke="#6b895e" vector-effect="non-scaling-stroke" d="
  M 386.14 243.23
  Q 387.45 256.81 375.93 263.48"
/>
</g>
<path fill="#006ab6" d="
  M 722.25 138.54
  Q 729.96 146.37 736.79 155.20
  Q 737.60 156.25 737.83 154.94
  Q 742.43 128.93 746.04 102.60
  L 803.50 102.50
  A 1.77 1.73 28.6 0 0 804.42 102.24
  Q 813.97 96.38 825.52 90.65
  Q 826.33 90.25 827.23 90.25
  L 898.00 90.25
  A 0.88 0.88 -4.6 0 1 898.87 90.99
  L 915.32 194.69
  A 0.32 0.32 -22.0 0 0 915.82 194.90
  Q 941.47 177.22 972.25 176.96
  L 979.00 177.54
  Q 979.19 180.57 978.86 183.57
  Q 978.62 185.67 978.92 188.42
  Q 979.24 191.34 978.66 194.36
  A 0.53 0.53 7.6 0 0 979.15 194.99
  Q 980.58 195.09 981.25 196.21
  Q 957.23 193.24 935.69 204.69
  Q 922.66 211.61 913.31 222.34
  Q 896.56 239.62 892.43 263.58
  Q 890.13 276.91 893.25 288.50
  Q 900.77 316.43 926.22 326.50
  Q 935.47 330.17 945.67 330.67
  Q 961.72 331.45 977.08 324.98
  Q 978.60 332.84 977.94 341.81
  Q 977.84 343.08 979.00 343.79
  Q 960.82 350.32 940.42 348.66
  A 0.52 0.49 -2.4 0 0 939.86 349.23
  L 941.29 357.50
  L 944.77 382.14
  L 845.91 364.65
  A 0.83 0.80 2.0 0 1 845.24 363.95
  L 840.34 321.53
  Q 840.18 320.14 839.53 321.38
  L 826.57 346.32
  Q 826.16 347.09 825.75 346.33
  L 804.06 306.14
  Q 803.28 304.69 803.03 306.31
  L 798.56 335.55
  A 0.79 0.79 8.8 0 1 797.66 336.21
  L 710.54 322.50
  L 717.25 281.49
  Q 717.37 280.79 716.75 281.14
  Q 686.79 298.10 651.45 302.35
  A 1.00 1.00 -3.2 0 0 650.56 303.34
  L 650.54 313.50
  L 650.46 380.25
  L 532.21 321.75
  Q 531.93 317.98 532.50 314.28
  Q 532.87 311.86 532.50 309.59
  Q 531.94 306.12 532.00 303.00
  Q 532.04 300.56 534.25 299.96
  L 620.25 342.79
  L 629.18 347.44
  A 0.75 0.73 -76.5 0 0 630.25 346.77
  L 630.19 303.15
  A 1.10 1.10 2.9 0 0 629.20 302.06
  Q 613.35 300.51 598.73 294.30
  Q 570.53 282.31 554.76 255.07
  A 2.60 2.46 -2.9 0 0 553.51 254.00
  L 491.24 229.20
  L 549.25 167.79
  L 558.27 158.60
  A 0.53 0.52 44.2 0 0 558.25 157.86
  L 531.96 132.75
  Q 531.77 131.25 532.76 131.37
  A 0.45 0.40 4.5 0 0 533.26 130.99
  Q 533.47 120.89 533.99 110.81
  Q 534.08 109.08 535.29 109.53
  A 1.26 0.83 80.9 0 1 535.91 110.21
  Q 536.65 111.96 538.54 111.50
  L 571.00 140.04
  L 573.26 142.18
  A 0.66 0.55 -43.7 0 0 574.08 142.13
  L 584.10 133.39
  Q 585.03 132.47 586.66 132.02
  Q 595.96 126.24 606.67 121.57
  A 0.39 0.39 58.1 0 0 606.81 120.96
  L 592.96 104.00
  L 614.48 79.11
  A 0.91 0.86 -46.1 0 0 614.49 77.94
  L 609.25 72.21
  L 613.50 67.21
  Q 617.13 68.62 620.06 71.70
  A 0.82 0.81 40.0 0 0 621.33 71.60
  Q 624.08 67.51 627.36 64.11
  Q 630.50 60.86 633.25 57.29
  L 644.14 44.84
  L 655.46 31.86
  Q 664.46 21.64 673.19 11.44
  Q 673.99 10.49 674.00 9.79
  Q 674.41 9.34 674.95 9.16
  A 0.75 0.65 63.3 0 1 675.72 9.48
  L 720.52 76.37
  A 0.83 0.82 -31.0 0 1 720.22 77.55
  L 657.13 111.45
  Q 655.58 112.28 657.34 112.34
  Q 694.25 113.57 722.25 138.54
  Z
  M 662.58 50.56
  L 622.84 98.38
  A 0.99 0.86 -43.8 0 0 622.74 99.48
  L 626.92 105.63
  A 0.65 0.55 -29.4 0 0 627.70 105.78
  L 683.29 78.25
  L 695.29 72.38
  A 0.56 0.55 -30.9 0 0 695.50 71.55
  L 672.05 39.89
  A 0.40 0.39 46.7 0 0 671.43 39.87
  L 662.58 50.56
  Z
  M 843.29 120.25
  L 830.34 192.41
  L 817.32 122.90
  A 1.02 1.02 84.9 0 0 816.32 122.06
  L 765.96 122.00
  A 1.04 1.01 4.6 0 0 764.94 122.85
  L 763.50 131.57
  L 747.90 224.35
  A 1.15 1.14 26.0 0 0 748.26 225.38
  L 763.41 238.96
  A 0.82 0.80 43.1 0 1 763.46 240.13
  L 742.10 261.90
  A 1.68 1.51 -20.6 0 0 741.66 262.75
  L 734.45 305.08
  A 0.53 0.52 9.9 0 0 734.88 305.68
  L 777.87 313.11
  L 785.16 314.44
  A 0.66 0.65 -80.3 0 0 785.93 313.89
  L 797.77 239.19
  Q 797.69 238.33 798.19 237.77
  A 0.38 0.34 54.0 0 1 798.78 237.90
  L 826.22 296.57
  L 829.07 302.95
  Q 829.53 303.98 829.94 302.92
  L 850.28 251.19
  L 864.86 346.74
  A 1.00 0.99 89.9 0 0 865.69 347.58
  L 908.25 353.96
  L 919.19 355.65
  A 0.41 0.41 89.9 0 0 919.65 355.19
  L 917.77 343.46
  A 1.40 1.25 9.6 0 0 916.99 342.49
  Q 907.65 338.25 900.05 332.12
  Q 892.64 326.14 886.76 317.65
  Q 871.12 295.04 873.26 267.23
  Q 874.02 257.44 877.12 247.65
  Q 883.40 227.86 897.30 211.81
  A 1.15 1.12 -29.7 0 0 897.56 210.90
  L 882.19 111.41
  A 0.78 0.78 -4.3 0 0 881.42 110.75
  L 845.81 110.75
  A 1.14 1.11 4.4 0 0 844.69 111.68
  L 843.29 120.25
  Z
  M 583.99 162.26
  Q 561.62 186.73 565.75 221.50
  Q 568.81 247.29 587.31 262.94
  Q 603.27 276.44 623.94 280.07
  Q 638.53 282.63 652.00 281.00
  Q 675.03 278.22 697.03 267.81
  Q 710.91 261.24 722.86 251.14
  Q 728.01 247.07 732.43 241.88
  A 0.52 0.51 41.4 0 0 732.38 241.16
  L 698.37 210.58
  A 0.52 0.49 -46.6 0 0 697.67 210.62
  L 688.36 220.06
  L 684.91 223.21
  Q 668.16 234.00 648.46 233.25
  L 705.68 171.98
  L 714.68 162.13
  A 0.59 0.57 45.9 0 0 714.68 161.37
  Q 696.35 139.23 667.77 134.39
  Q 657.80 132.70 647.00 133.50
  Q 623.96 135.20 604.19 146.19
  Q 592.33 152.78 583.99 162.26
  Z
  M 734.22 174.85
  L 715.30 195.07
  A 0.35 0.35 42.8 0 0 715.32 195.57
  L 728.81 207.62
  Q 729.19 207.95 729.27 207.44
  L 734.52 175.00
  Q 734.61 174.44 734.22 174.85
  Z
  M 524.28 221.60
  A 0.43 0.43 33.2 0 0 524.43 222.31
  L 545.32 230.39
  Q 546.23 230.74 546.05 229.78
  Q 543.56 216.60 544.56 202.71
  Q 544.62 201.78 543.96 202.43
  L 524.28 221.60
  Z"
/>
<path fill="#00316b" d="
  M 674.00 9.79
  Q 673.99 10.49 673.19 11.44
  Q 664.46 21.64 655.46 31.86
  Q 652.75 28.22 648.50 27.21
  Q 650.62 24.60 652.82 22.08
  Q 654.90 19.69 657.72 18.13
  Q 665.74 13.73 674.00 9.79
  Z"
/>
<path fill="#00407e" d="
  M 648.50 27.21
  Q 652.75 28.22 655.46 31.86
  L 644.14 44.84
  Q 641.62 41.29 638.00 39.21
  L 648.50 27.21
  Z"
/>
<path fill="#005294" d="
  M 638.00 39.21
  Q 641.62 41.29 644.14 44.84
  L 633.25 57.29
  L 627.00 51.71
  L 638.00 39.21
  Z"
/>
<path fill="#d5a100" d="
  M 683.29 78.25
  Q 673.83 63.83 662.58 50.56
  L 671.43 39.87
  A 0.40 0.39 46.7 0 1 672.05 39.89
  L 695.50 71.55
  A 0.56 0.55 -30.9 0 1 695.29 72.38
  L 683.29 78.25
  Z"
/>
<path fill="#ffcc00" d="
  M 662.58 50.56
  Q 673.83 63.83 683.29 78.25
  L 627.70 105.78
  A 0.65 0.55 -29.4 0 1 626.92 105.63
  L 622.74 99.48
  A 0.99 0.86 -43.8 0 1 622.84 98.38
  L 662.58 50.56
  Z"
/>
<path fill="#0060a6" d="
  M 627.00 51.71
  L 633.25 57.29
  Q 630.50 60.86 627.36 64.11
  Q 624.08 67.51 621.33 71.60
  A 0.82 0.81 40.0 0 1 620.06 71.70
  Q 617.13 68.62 613.50 67.21
  L 627.00 51.71
  Z"
/>
<path fill="#0070bb" d="
  M 609.25 72.21
  L 614.49 77.94
  A 0.91 0.86 -46.1 0 1 614.48 79.11
  L 592.96 104.00
  Q 583.51 109.26 573.48 113.34
  L 609.25 72.21
  Z"
/>
<path fill="#0062b1" d="
  M 538.54 111.50
  Q 536.65 111.96 535.91 110.21
  A 1.26 0.83 80.9 0 0 535.29 109.53
  Q 534.08 109.08 533.99 110.81
  Q 533.47 120.89 533.26 130.99
  A 0.45 0.40 4.5 0 1 532.76 131.37
  Q 531.77 131.25 531.96 132.75
  L 510.70 112.61
  A 0.49 0.47 39.1 0 0 509.98 112.67
  L 502.07 123.76
  L 461.04 181.00
  L 456.75 113.01
  A 0.50 0.49 79.9 0 0 456.12 112.56
  L 390.00 132.22
  A 0.61 0.56 -10.7 0 0 389.56 132.81
  L 389.96 139.00
  L 390.27 149.41
  A 0.77 0.76 82.1 0 0 391.22 150.13
  L 408.64 145.65
  A 0.44 0.43 80.6 0 1 409.18 146.04
  L 415.02 215.94
  A 1.43 1.40 -69.4 0 0 415.40 216.80
  Q 441.00 243.94 437.26 281.73
  Q 435.22 302.35 424.87 321.01
  Q 424.10 322.40 424.23 323.94
  L 427.01 356.81
  A 0.58 0.57 -6.2 0 0 427.66 357.33
  L 458.92 352.99
  L 468.00 351.74
  A 0.89 0.86 86.3 0 0 468.75 350.86
  L 468.44 267.94
  Q 468.22 266.88 469.32 267.43
  Q 501.84 283.58 534.25 299.96
  Q 532.04 300.56 532.00 303.00
  Q 531.94 306.12 532.50 309.59
  Q 532.87 311.86 532.50 314.28
  Q 531.93 317.98 532.21 321.75
  L 489.00 300.47
  A 0.86 0.84 13.2 0 0 487.76 301.22
  L 487.87 320.81
  Q 487.66 344.25 487.75 367.24
  Q 487.75 367.38 487.96 368.73
  Q 488.17 370.11 486.48 370.10
  L 410.28 381.14
  A 0.47 0.45 -6.5 0 1 409.75 380.73
  L 406.47 345.65
  Q 406.41 345.00 405.94 345.46
  Q 379.91 370.56 345.24 373.97
  Q 334.65 375.01 325.28 373.72
  Q 303.09 370.68 285.53 355.99
  Q 286.26 345.44 286.00 332.50
  Q 285.96 330.68 287.46 329.25
  Q 304.15 352.42 333.01 354.07
  Q 347.17 354.88 360.58 350.36
  Q 377.89 344.53 391.13 332.13
  Q 408.98 316.27 416.33 293.57
  Q 423.43 271.65 416.66 250.84
  Q 413.48 241.03 407.39 233.26
  Q 395.49 218.04 376.59 213.24
  Q 367.12 210.84 356.76 211.33
  Q 342.24 212.01 328.44 218.19
  Q 312.25 225.43 300.83 238.42
  Q 293.05 245.84 287.71 255.50
  Q 285.74 255.23 285.90 253.38
  Q 286.00 252.18 286.00 252.12
  Q 285.82 198.94 286.00 145.75
  Q 286.01 143.61 287.04 142.25
  Q 310.84 173.37 302.31 212.33
  Q 301.98 213.83 303.23 212.94
  Q 333.73 191.42 371.50 195.21
  Q 382.27 197.30 392.51 201.25
  A 0.35 0.35 -81.8 0 0 392.99 200.89
  L 390.40 172.36
  A 0.61 0.60 80.4 0 0 389.66 171.83
  Q 382.08 173.70 374.20 175.82
  Q 371.83 176.46 368.44 178.19
  Q 357.83 183.59 352.69 186.63
  Q 351.22 187.68 351.22 186.22
  Q 351.22 185.38 351.21 185.27
  Q 350.60 177.77 350.54 170.25
  L 350.87 171.77
  Q 350.97 172.26 351.32 171.86
  Q 353.20 169.68 355.00 169.75
  Q 359.08 169.90 360.50 169.50
  Q 364.17 168.45 368.00 168.76
  Q 371.47 169.03 371.00 165.25
  Q 370.61 162.15 370.31 149.05
  L 369.46 133.00
  L 368.71 117.25
  L 478.58 82.09
  A 0.38 0.38 -9.0 0 1 479.08 82.45
  L 479.04 97.25
  L 478.50 125.81
  Q 478.48 126.80 478.94 125.92
  L 502.33 81.33
  A 0.95 0.22 75.9 0 0 502.32 80.66
  L 502.25 80.29
  Q 502.99 79.81 503.50 80.25
  Q 510.71 86.58 538.54 111.50
  Z"
/>
<path fill="#0b285f" d="
  M 502.25 80.29
  L 502.32 80.66
  A 0.95 0.22 75.9 0 1 502.33 81.33
  L 478.94 125.92
  Q 478.48 126.80 478.50 125.81
  L 479.04 97.25
  Q 479.90 97.08 480.25 95.75
  Q 480.86 93.47 482.58 91.61
  Q 483.73 90.38 486.37 88.96
  Q 494.34 84.68 502.25 80.29
  Z"
/>
<path fill="#1d5cac" d="
  M 178.25 98.79
  Q 178.32 99.24 178.70 99.32
  Q 178.97 99.38 178.75 99.55
  Q 178.26 99.92 178.36 100.53
  Q 178.50 101.48 178.50 101.50
  Q 178.54 108.74 178.45 115.97
  Q 178.45 116.43 178.06 117.82
  Q 177.78 118.85 178.26 119.83
  A 0.91 0.66 -7.5 0 0 179.00 120.23
  L 185.75 120.46
  Q 156.98 120.52 129.30 128.26
  Q 88.03 139.81 51.74 162.55
  A 0.79 0.65 -24.4 0 0 51.37 163.31
  Q 51.60 164.22 52.62 165.46
  L 83.80 218.16
  A 0.75 0.73 61.7 0 0 84.76 218.46
  L 105.82 208.12
  A 0.87 0.85 -25.1 0 1 106.99 208.53
  L 178.96 369.25
  Q 177.93 369.62 177.94 371.44
  Q 178.04 392.58 178.00 413.72
  Q 178.00 414.71 177.63 415.17
  Q 176.94 416.01 175.79 415.25
  L 138.91 332.72
  L 130.42 313.60
  L 123.05 297.23
  L 113.46 275.75
  L 107.71 263.00
  L 96.51 237.39
  A 0.80 0.76 -24.2 0 0 95.46 237.02
  L 75.42 246.23
  L 59.79 220.00
  L 47.00 198.71
  L 35.04 178.50
  L 26.04 163.25
  L 21.89 156.02
  Q 60.49 128.94 104.94 113.18
  Q 140.51 100.57 178.25 98.79
  Z"
/>
<path fill="#135fae" d="
  M 178.25 98.79
  Q 194.17 98.36 209.88 100.44
  Q 222.00 102.05 229.54 104.02
  Q 239.92 106.72 249.54 111.74
  Q 259.93 117.17 269.31 124.20
  Q 279.55 131.87 287.04 142.25
  Q 286.01 143.61 286.00 145.75
  Q 285.82 198.94 286.00 252.12
  Q 286.00 252.18 285.90 253.38
  Q 285.74 255.23 287.71 255.50
  Q 281.52 266.34 278.74 278.50
  Q 272.48 305.90 287.46 329.25
  Q 285.96 330.68 286.00 332.50
  Q 286.26 345.44 285.53 355.99
  Q 277.58 349.21 271.96 341.00
  Q 265.95 331.67 262.25 321.21
  Q 257.21 304.72 258.88 286.08
  Q 258.95 285.22 258.34 285.82
  Q 249.47 294.31 240.91 300.62
  A 1.68 1.66 -25.8 0 0 240.28 302.39
  L 247.46 330.00
  L 252.00 347.29
  L 268.62 411.26
  A 0.94 0.79 62.9 0 1 268.42 412.12
  Q 267.50 413.02 266.17 413.00
  L 186.69 438.27
  A 0.57 0.57 69.0 0 1 186.00 437.96
  L 175.79 415.25
  Q 176.94 416.01 177.63 415.17
  Q 178.00 414.71 178.00 413.72
  Q 178.04 392.58 177.94 371.44
  Q 177.93 369.62 178.96 369.25
  L 197.72 411.05
  A 1.02 1.01 68.7 0 0 198.96 411.60
  L 231.48 401.16
  L 242.03 397.74
  A 0.66 0.66 73.9 0 0 242.47 396.94
  L 215.06 292.17
  Q 236.72 278.55 254.00 259.29
  Q 268.61 242.82 276.89 222.42
  Q 281.86 210.18 282.79 197.00
  Q 283.88 181.68 277.43 167.81
  Q 270.99 153.98 259.46 144.02
  Q 238.43 125.87 210.75 122.50
  Q 194.45 120.51 185.75 120.46
  L 179.00 120.23
  A 0.91 0.66 -7.5 0 1 178.26 119.83
  Q 177.78 118.85 178.06 117.82
  Q 178.45 116.43 178.45 115.97
  Q 178.54 108.74 178.50 101.50
  Q 178.50 101.48 178.36 100.53
  Q 178.26 99.92 178.75 99.55
  Q 178.97 99.38 178.70 99.32
  Q 178.32 99.24 178.25 98.79
  Z"
/>
<path fill="#00407e" d="
  M 746.04 102.60
  Q 742.43 128.93 737.83 154.94
  Q 737.60 156.25 736.79 155.20
  Q 729.96 146.37 722.25 138.54
  L 726.37 114.16
  A 1.73 1.67 81.1 0 1 727.22 112.95
  L 746.04 102.60
  Z"
/>
<path fill="#0b285f" d="
  M 592.96 104.00
  L 606.81 120.96
  A 0.39 0.39 58.1 0 1 606.67 121.57
  Q 595.96 126.24 586.66 132.02
  Q 580.00 123.50 573.01 115.74
  Q 571.63 114.21 573.48 113.34
  Q 583.51 109.26 592.96 104.00
  Z"
/>
<path fill="#0073bc" d="
  M 1104.75 146.29
  L 1110.25 173.77
  Q 1110.51 175.02 1110.79 173.78
  L 1118.91 138.56
  L 1212.16 161.15
  A 0.85 0.84 16.0 0 1 1212.76 162.23
  L 1122.97 432.62
  L 1054.53 411.09
  A 1.13 1.11 -81.8 0 1 1053.75 410.03
  L 1053.31 384.15
  A 0.61 0.59 3.4 0 0 1052.78 383.57
  L 987.29 374.25
  L 990.88 339.81
  A 0.55 0.49 -84.6 0 0 990.44 339.21
  Q 989.36 339.11 988.64 340.25
  L 979.00 343.79
  Q 977.84 343.08 977.94 341.81
  Q 978.60 332.84 977.08 324.98
  Q 991.55 319.20 1002.63 308.15
  Q 1021.02 291.31 1026.53 267.85
  Q 1028.91 257.75 1028.36 248.01
  Q 1026.63 217.52 998.69 201.81
  Q 992.24 198.19 981.25 196.21
  Q 980.58 195.09 979.15 194.99
  A 0.53 0.53 7.6 0 1 978.66 194.36
  Q 979.24 191.34 978.92 188.42
  Q 978.62 185.67 978.86 183.57
  Q 979.19 180.57 979.00 177.54
  Q 980.28 177.33 981.50 177.71
  Q 989.98 179.22 998.21 181.75
  L 1007.68 186.06
  A 0.38 0.36 16.1 0 0 1008.21 185.79
  L 1009.33 175.89
  L 993.25 171.71
  L 992.67 161.94
  L 992.21 135.50
  Q 992.56 123.32 991.78 110.46
  L 1101.66 134.57
  A 1.21 1.07 88.9 0 1 1102.50 135.48
  L 1104.75 146.29
  Z
  M 1011.04 147.50
  L 1010.70 155.06
  A 0.64 0.63 -81.5 0 0 1011.17 155.70
  L 1025.33 159.52
  A 1.23 1.21 10.4 0 1 1026.24 160.81
  L 1022.95 195.23
  A 3.14 3.12 -64.9 0 0 1023.84 197.71
  Q 1044.34 218.38 1046.06 247.01
  Q 1046.96 261.94 1043.50 274.25
  Q 1035.15 303.94 1011.41 325.13
  A 3.00 2.97 72.1 0 0 1010.42 327.09
  L 1007.68 356.44
  A 0.70 0.68 -83.2 0 0 1008.25 357.18
  L 1041.27 362.41
  L 1048.38 363.61
  A 0.87 0.87 -80.3 0 0 1049.38 362.90
  Q 1058.49 311.92 1067.31 261.56
  Q 1067.89 258.28 1068.47 256.44
  L 1071.77 394.57
  A 1.85 1.83 -82.5 0 0 1073.08 396.30
  L 1104.06 405.49
  L 1109.34 406.97
  A 0.82 0.76 -72.7 0 0 1110.28 406.43
  L 1186.73 175.07
  A 0.67 0.66 -74.7 0 0 1186.25 174.22
  L 1133.41 162.51
  A 0.95 0.95 13.5 0 0 1132.28 163.20
  L 1129.52 173.85
  L 1107.54 264.25
  L 1083.54 151.05
  A 0.78 0.77 89.4 0 0 1082.94 150.46
  L 1012.72 136.30
  A 0.97 0.96 -82.8 0 0 1011.57 137.20
  L 1011.04 147.50
  Z"
/>
<path fill="#d5a100" d="
  M 908.25 353.96
  Q 908.26 352.28 906.91 351.82
  Q 905.82 351.45 905.76 351.43
  Q 879.49 338.71 868.99 312.67
  Q 865.26 303.40 863.92 293.38
  Q 862.10 279.65 865.00 266.50
  Q 870.62 241.05 887.44 221.72
  A 1.82 1.79 -29.1 0 0 887.87 220.25
  L 872.51 121.06
  A 0.59 0.58 -3.4 0 0 871.94 120.56
  L 843.29 120.25
  L 844.69 111.68
  A 1.14 1.11 4.4 0 1 845.81 110.75
  L 881.42 110.75
  A 0.78 0.78 -4.3 0 1 882.19 111.41
  L 897.56 210.90
  A 1.15 1.12 -29.7 0 1 897.30 211.81
  Q 883.40 227.86 877.12 247.65
  Q 874.02 257.44 873.26 267.23
  Q 871.12 295.04 886.76 317.65
  Q 892.64 326.14 900.05 332.12
  Q 907.65 338.25 916.99 342.49
  A 1.40 1.25 9.6 0 1 917.77 343.46
  L 919.65 355.19
  A 0.41 0.41 -89.8 0 1 919.19 355.65
  L 908.25 353.96
  Z"
/>
<path fill="#00316b" d="
  M 991.78 110.46
  Q 992.56 123.32 992.21 135.50
  Q 988.82 136.79 983.75 136.00
  Q 979.02 135.26 972.03 137.17
  L 971.78 122.10
  A 1.45 1.29 -16.3 0 1 972.54 120.88
  L 991.78 110.46
  Z"
/>
<path fill="#d5a100" d="
  M 531.96 132.75
  L 558.25 157.86
  A 0.53 0.52 44.2 0 1 558.27 158.60
  L 549.25 167.79
  Q 526.25 145.29 502.07 123.76
  L 509.98 112.67
  A 0.49 0.47 39.1 0 1 510.70 112.61
  L 531.96 132.75
  Z"
/>
<path fill="#d5a100" d="
  M 461.04 181.00
  L 451.55 194.08
  Q 451.28 194.46 451.25 193.98
  L 447.01 122.74
  A 0.56 0.56 -9.9 0 0 446.29 122.24
  L 389.96 139.00
  L 389.56 132.81
  A 0.61 0.56 -10.7 0 1 390.00 132.22
  L 456.12 112.56
  A 0.50 0.49 79.9 0 1 456.75 113.01
  L 461.04 181.00
  Z"
/>
<path fill="#00316b" d="
  M 368.71 117.25
  L 369.46 133.00
  L 368.82 134.95
  A 0.90 0.65 -1.7 0 1 368.18 135.44
  L 362.97 136.55
  Q 362.17 136.72 362.00 136.70
  Q 357.33 136.34 353.00 138.00
  Q 352.02 138.38 349.80 138.33
  A 0.69 0.43 -75.8 0 0 349.30 138.81
  L 349.04 139.50
  L 348.44 128.70
  A 0.81 0.80 74.6 0 1 348.87 127.94
  L 368.71 117.25
  Z"
/>
<path fill="#ffcc00" d="
  M 843.29 120.25
  L 871.94 120.56
  A 0.59 0.58 -3.4 0 1 872.51 121.06
  L 887.87 220.25
  A 1.82 1.79 -29.1 0 1 887.44 221.72
  Q 870.62 241.05 865.00 266.50
  Q 862.10 279.65 863.92 293.38
  Q 865.26 303.40 868.99 312.67
  Q 879.49 338.71 905.76 351.43
  Q 905.82 351.45 906.91 351.82
  Q 908.26 352.28 908.25 353.96
  L 865.69 347.58
  A 1.00 0.99 89.9 0 1 864.86 346.74
  L 850.28 251.19
  Q 849.17 251.23 847.69 252.94
  Q 844.90 256.14 841.47 259.39
  Q 840.86 259.97 840.53 260.78
  L 826.22 296.57
  L 798.78 237.90
  A 0.38 0.34 54.0 0 0 798.19 237.77
  Q 797.69 238.33 797.77 239.19
  Q 792.92 241.51 789.80 245.59
  Q 788.36 247.48 787.91 250.46
  Q 783.15 281.77 777.87 313.11
  L 734.88 305.68
  A 0.53 0.52 9.9 0 1 734.45 305.08
  L 741.66 262.75
  A 1.68 1.51 -20.6 0 1 742.10 261.90
  L 763.46 240.13
  A 0.82 0.80 43.1 0 0 763.41 238.96
  L 748.26 225.38
  A 1.15 1.14 26.0 0 1 747.90 224.35
  L 763.50 131.57
  L 806.87 131.75
  A 0.72 0.71 -5.3 0 1 807.58 132.33
  L 820.19 201.76
  Q 820.39 202.83 821.19 202.10
  Q 826.93 196.89 830.34 192.41
  L 843.29 120.25
  Z"
/>
<path fill="#d5a100" d="
  M 185.75 120.46
  Q 194.45 120.51 210.75 122.50
  Q 238.43 125.87 259.46 144.02
  Q 270.99 153.98 277.43 167.81
  Q 283.88 181.68 282.79 197.00
  Q 281.86 210.18 276.89 222.42
  Q 268.61 242.82 254.00 259.29
  Q 253.05 259.19 253.75 258.25
  Q 262.06 246.97 267.75 232.25
  Q 272.38 220.30 273.21 207.50
  Q 274.05 194.72 270.25 183.75
  Q 264.61 167.46 251.20 155.29
  Q 236.86 142.27 218.88 136.20
  Q 210.73 133.44 199.37 131.93
  Q 161.64 126.92 124.51 136.79
  Q 86.94 146.79 52.62 165.46
  Q 51.60 164.22 51.37 163.31
  A 0.79 0.65 -24.4 0 1 51.74 162.55
  Q 88.03 139.81 129.30 128.26
  Q 156.98 120.52 185.75 120.46
  Z"
/>
<path fill="#d5a100" d="
  M 830.34 192.41
  Q 826.93 196.89 821.19 202.10
  Q 820.39 202.83 820.19 201.76
  L 807.58 132.33
  A 0.72 0.71 -5.3 0 0 806.87 131.75
  L 763.50 131.57
  L 764.94 122.85
  A 1.04 1.01 4.6 0 1 765.96 122.00
  L 816.32 122.06
  A 1.02 1.02 84.9 0 1 817.32 122.90
  L 830.34 192.41
  Z"
/>
<path fill="#ffcc00" d="
  M 461.04 181.00
  L 502.07 123.76
  Q 526.25 145.29 549.25 167.79
  L 491.24 229.20
  L 482.65 238.50
  A 0.62 0.62 -58.1 0 0 482.88 239.50
  L 544.03 263.96
  A 2.31 2.26 85.5 0 1 545.12 264.91
  Q 557.06 285.71 576.83 297.61
  Q 596.20 309.28 619.66 311.85
  A 0.76 0.75 -88.2 0 1 620.33 312.57
  Q 620.83 327.49 620.25 342.79
  L 534.25 299.96
  Q 501.84 283.58 469.32 267.43
  Q 468.22 266.88 468.44 267.94
  L 459.53 276.44
  A 2.04 1.64 72.3 0 0 459.00 277.81
  L 458.92 352.99
  L 427.66 357.33
  A 0.58 0.57 -6.2 0 1 427.01 356.81
  L 424.23 323.94
  Q 424.10 322.40 424.87 321.01
  Q 435.22 302.35 437.26 281.73
  Q 441.00 243.94 415.40 216.80
  A 1.43 1.40 -69.4 0 1 415.02 215.94
  L 409.18 146.04
  A 0.44 0.43 80.6 0 0 408.64 145.65
  L 391.22 150.13
  A 0.77 0.76 82.1 0 1 390.27 149.41
  L 389.96 139.00
  L 446.29 122.24
  A 0.56 0.56 -9.9 0 1 447.01 122.74
  L 451.25 193.98
  Q 451.28 194.46 451.55 194.08
  L 461.04 181.00
  Z"
/>
<path fill="#ffcc00" d="
  M 254.00 259.29
  Q 236.72 278.55 215.06 292.17
  L 205.15 299.07
  A 1.05 1.02 65.3 0 0 204.75 300.19
  L 231.48 401.16
  L 198.96 411.60
  A 1.02 1.01 68.7 0 1 197.72 411.05
  L 178.96 369.25
  L 106.99 208.53
  A 0.87 0.85 -25.1 0 0 105.82 208.12
  L 84.76 218.46
  A 0.75 0.73 61.7 0 1 83.80 218.16
  L 52.62 165.46
  Q 86.94 146.79 124.51 136.79
  Q 161.64 126.92 199.37 131.93
  Q 210.73 133.44 218.88 136.20
  Q 236.86 142.27 251.20 155.29
  Q 264.61 167.46 270.25 183.75
  Q 274.05 194.72 273.21 207.50
  Q 272.38 220.30 267.75 232.25
  Q 262.06 246.97 253.75 258.25
  Q 253.05 259.19 254.00 259.29
  Z
  M 183.79 189.50
  L 182.94 187.96
  A 0.34 0.29 50.6 0 0 182.42 187.87
  L 176.27 195.84
  A 1.09 0.90 58.8 0 0 176.14 196.73
  Q 187.09 235.18 199.41 273.22
  A 0.45 0.45 -20.6 0 0 200.02 273.49
  Q 204.77 271.36 206.93 267.94
  Q 213.06 264.01 221.06 257.81
  Q 227.37 252.94 232.23 247.41
  Q 237.71 241.18 240.52 234.74
  Q 245.17 224.07 243.76 212.36
  Q 242.86 204.89 239.87 199.57
  Q 236.45 193.49 230.44 189.56
  Q 221.80 183.91 211.00 183.25
  Q 197.67 182.43 183.79 189.50
  Z"
/>
<path fill="#004281" d="
  M 369.46 133.00
  L 370.31 149.05
  Q 360.73 151.80 350.57 152.84
  A 0.48 0.48 -7.7 0 0 350.14 153.40
  Q 350.36 154.58 349.75 154.54
  L 349.04 139.50
  L 349.30 138.81
  A 0.69 0.43 -75.8 0 1 349.80 138.33
  Q 352.02 138.38 353.00 138.00
  Q 357.33 136.34 362.00 136.70
  Q 362.17 136.72 362.97 136.55
  L 368.18 135.44
  A 0.90 0.65 -1.7 0 0 368.82 134.95
  L 369.46 133.00
  Z"
/>
<path fill="#0b285f" d="
  M 584.10 133.39
  L 574.08 142.13
  A 0.66 0.55 -43.7 0 1 573.26 142.18
  L 571.00 140.04
  L 584.10 133.39
  Z"
/>
<path fill="#d5a100" d="
  M 705.68 171.98
  Q 683.90 145.54 651.00 143.25
  Q 614.93 140.74 583.99 162.26
  Q 592.33 152.78 604.19 146.19
  Q 623.96 135.20 647.00 133.50
  Q 657.80 132.70 667.77 134.39
  Q 696.35 139.23 714.68 161.37
  A 0.59 0.57 45.9 0 1 714.68 162.13
  L 705.68 171.98
  Z"
/>
<path fill="#004888" d="
  M 992.21 135.50
  L 992.67 161.94
  Q 984.25 164.47 976.50 163.50
  Q 974.10 163.20 973.09 164.56
  Q 972.50 165.36 972.51 167.58
  Q 972.52 171.04 972.46 174.50
  L 972.03 137.17
  Q 979.02 135.26 983.75 136.00
  Q 988.82 136.79 992.21 135.50
  Z"
/>
<path fill="#d5a100" d="
  M 1107.54 264.25
  Q 1103.43 269.61 1098.20 273.88
  A 0.31 0.30 65.4 0 1 1097.71 273.69
  L 1073.89 160.71
  A 0.92 0.92 89.5 0 0 1073.18 160.01
  L 1011.04 147.50
  L 1011.57 137.20
  A 0.97 0.96 -82.8 0 1 1012.72 136.30
  L 1082.94 150.46
  A 0.78 0.77 89.4 0 1 1083.54 151.05
  L 1107.54 264.25
  Z"
/>
<path fill="#0b285f" d="
  M 1118.91 138.56
  L 1110.79 173.78
  Q 1110.51 175.02 1110.25 173.77
  L 1104.75 146.29
  Q 1111.67 143.15 1118.91 138.56
  Z"
/>
<path fill="#ffcc00" d="
  M 705.68 171.98
  L 648.46 233.25
  L 639.24 242.76
  Q 638.52 243.50 639.56 243.50
  Q 667.12 243.41 684.91 223.21
  L 688.36 220.06
  L 722.86 251.14
  Q 710.91 261.24 697.03 267.81
  Q 675.03 278.22 652.00 281.00
  Q 638.53 282.63 623.94 280.07
  Q 603.27 276.44 587.31 262.94
  Q 568.81 247.29 565.75 221.50
  Q 561.62 186.73 583.99 162.26
  Q 614.93 140.74 651.00 143.25
  Q 683.90 145.54 705.68 171.98
  Z
  M 614.00 175.54
  Q 612.48 174.74 613.37 173.45
  Q 613.59 173.14 613.30 173.38
  Q 597.52 186.28 596.84 205.62
  Q 596.52 214.70 599.77 222.52
  Q 603.10 230.54 609.59 237.09
  A 0.67 0.59 49.3 0 0 610.40 237.20
  L 617.29 232.25
  Q 619.32 234.74 620.94 232.62
  Q 621.71 231.61 621.75 231.56
  Q 645.71 204.35 669.67 177.12
  A 0.56 0.55 44.6 0 0 669.66 176.38
  Q 659.86 165.80 646.25 164.25
  Q 627.64 162.13 614.00 175.54
  Z"
/>
<path fill="#ffcc00" d="
  M 1011.04 147.50
  L 1073.18 160.01
  A 0.92 0.92 89.5 0 1 1073.89 160.71
  L 1097.71 273.69
  A 0.31 0.30 65.4 0 0 1098.20 273.88
  Q 1103.43 269.61 1107.54 264.25
  L 1129.52 173.85
  L 1176.27 183.87
  A 0.88 0.88 -74.5 0 1 1176.91 185.01
  L 1104.06 405.49
  L 1073.08 396.30
  A 1.85 1.83 -82.5 0 1 1071.77 394.57
  L 1068.47 256.44
  Q 1063.94 259.22 1060.04 263.77
  Q 1058.70 265.35 1058.33 267.44
  L 1041.27 362.41
  L 1008.25 357.18
  A 0.70 0.68 -83.2 0 1 1007.68 356.44
  L 1010.42 327.09
  A 3.00 2.97 72.1 0 1 1011.41 325.13
  Q 1035.15 303.94 1043.50 274.25
  Q 1046.96 261.94 1046.06 247.01
  Q 1044.34 218.38 1023.84 197.71
  A 3.14 3.12 -64.9 0 1 1022.95 195.23
  L 1026.24 160.81
  A 1.23 1.21 10.4 0 0 1025.33 159.52
  L 1011.17 155.70
  A 0.64 0.63 -81.5 0 1 1010.70 155.06
  L 1011.04 147.50
  Z"
/>
<path fill="#00579a" d="
  M 370.31 149.05
  Q 370.61 162.15 371.00 165.25
  Q 371.47 169.03 368.00 168.76
  Q 364.17 168.45 360.50 169.50
  Q 359.08 169.90 355.00 169.75
  Q 353.20 169.68 351.32 171.86
  Q 350.97 172.26 350.87 171.77
  L 350.54 170.25
  L 349.75 154.54
  Q 350.36 154.58 350.14 153.40
  A 0.48 0.48 -7.7 0 1 350.57 152.84
  Q 360.73 151.80 370.31 149.05
  Z"
/>
<path fill="#0b285f" d="
  M 21.89 156.02
  L 26.04 163.25
  Q 26.45 166.05 24.81 166.81
  Q 15.63 171.09 6.93 176.21
  Q 5.62 174.58 5.37 173.06
  A 1.00 0.95 -28.1 0 1 5.66 172.19
  L 21.89 156.02
  Z"
/>
<path fill="#005ca1" d="
  M 992.67 161.94
  L 993.25 171.71
  L 981.50 177.71
  Q 980.28 177.33 979.00 177.54
  L 972.25 176.96
  Q 972.71 175.78 972.46 174.50
  Q 972.52 171.04 972.51 167.58
  Q 972.50 165.36 973.09 164.56
  Q 974.10 163.20 976.50 163.50
  Q 984.25 164.47 992.67 161.94
  Z"
/>
<path fill="#d5a100" d="
  M 1104.06 405.49
  L 1176.91 185.01
  A 0.88 0.88 -74.5 0 0 1176.27 183.87
  L 1129.52 173.85
  L 1132.28 163.20
  A 0.95 0.95 13.5 0 1 1133.41 162.51
  L 1186.25 174.22
  A 0.67 0.66 -74.7 0 1 1186.73 175.07
  L 1110.28 406.43
  A 0.82 0.76 -72.7 0 1 1109.34 406.97
  L 1104.06 405.49
  Z"
/>
<path fill="#00316b" d="
  M 26.04 163.25
  L 35.04 178.50
  Q 34.51 180.65 32.49 181.49
  Q 24.59 184.78 17.48 189.53
  Q 17.17 189.74 16.86 190.26
  Q 16.41 191.01 15.57 190.71
  L 6.93 176.21
  Q 15.63 171.09 24.81 166.81
  Q 26.45 166.05 26.04 163.25
  Z"
/>
<path fill="#0066b4" d="
  M 617.29 232.25
  Q 603.05 220.07 603.00 202.25
  Q 602.96 187.29 614.00 175.54
  Q 627.64 162.13 646.25 164.25
  Q 659.86 165.80 669.66 176.38
  A 0.56 0.55 44.6 0 1 669.67 177.12
  Q 645.71 204.35 621.75 231.56
  Q 621.71 231.61 620.94 232.62
  Q 619.32 234.74 617.29 232.25
  Z
  M 623.09 185.83
  Q 612.95 197.84 619.31 213.47
  A 0.57 0.57 -34.5 0 0 620.27 213.63
  L 647.23 182.65
  L 649.22 179.51
  A 0.42 0.38 24.0 0 0 648.96 178.92
  Q 633.86 174.43 623.09 185.83
  Z"
/>
<path fill="#0b285f" d="
  M 371.50 195.21
  L 370.42 183.51
  A 1.11 1.08 -9.9 0 0 369.05 182.58
  L 352.69 186.63
  Q 357.83 183.59 368.44 178.19
  Q 371.83 176.46 374.20 175.82
  Q 382.08 173.70 389.66 171.83
  A 0.61 0.60 80.4 0 1 390.40 172.36
  L 392.99 200.89
  A 0.35 0.35 -81.8 0 1 392.51 201.25
  Q 382.27 197.30 371.50 195.21
  Z"
/>
<path fill="#0b285f" d="
  M 993.25 171.71
  L 1009.33 175.89
  L 998.21 181.75
  Q 989.98 179.22 981.50 177.71
  L 993.25 171.71
  Z"
/>
<path fill="#d5a100" d="
  M 614.00 175.54
  Q 602.96 187.29 603.00 202.25
  Q 603.05 220.07 617.29 232.25
  L 610.40 237.20
  A 0.67 0.59 49.3 0 1 609.59 237.09
  Q 603.10 230.54 599.77 222.52
  Q 596.52 214.70 596.84 205.62
  Q 597.52 186.28 613.30 173.38
  Q 613.59 173.14 613.37 173.45
  Q 612.48 174.74 614.00 175.54
  Z"
/>
<path fill="#0b285f" d="
  M 734.22 174.85
  Q 734.61 174.44 734.52 175.00
  L 729.27 207.44
  Q 729.19 207.95 728.81 207.62
  L 715.32 195.57
  A 0.35 0.35 42.8 0 1 715.30 195.07
  L 734.22 174.85
  Z"
/>
<path fill="#321e73" d="
  M 1009.33 175.89
  L 1008.21 185.79
  A 0.38 0.36 16.1 0 1 1007.68 186.06
  L 998.21 181.75
  L 1009.33 175.89
  Z"
/>
<path fill="#7d8067" d="
  M 647.23 182.65
  L 644.44 184.75
  A 1.25 0.85 25.8 0 1 643.51 184.89
  Q 633.35 182.66 623.09 185.83
  Q 633.86 174.43 648.96 178.92
  A 0.42 0.38 24.0 0 1 649.22 179.51
  L 647.23 182.65
  Z"
/>
<path fill="#00407e" d="
  M 35.04 178.50
  L 47.00 198.71
  Q 42.90 202.03 37.00 204.50
  Q 32.07 206.56 27.50 210.79
  L 15.57 190.71
  Q 16.41 191.01 16.86 190.26
  Q 17.17 189.74 17.48 189.53
  Q 24.59 184.78 32.49 181.49
  Q 34.51 180.65 35.04 178.50
  Z"
/>
<path fill="#225aab" d="
  M 206.93 267.94
  Q 197.42 239.13 183.25 191.50
  Q 182.83 190.09 183.79 189.50
  Q 197.67 182.43 211.00 183.25
  Q 221.80 183.91 230.44 189.56
  Q 236.45 193.49 239.87 199.57
  Q 242.86 204.89 243.76 212.36
  Q 245.17 224.07 240.52 234.74
  Q 237.71 241.18 232.23 247.41
  Q 227.37 252.94 221.06 257.81
  Q 213.06 264.01 206.93 267.94
  Z
  M 204.43 206.08
  L 215.16 240.71
  A 0.36 0.35 63.5 0 0 215.71 240.90
  Q 222.71 235.71 225.71 227.50
  Q 228.13 222.23 227.50 214.50
  Q 226.88 206.80 221.44 203.06
  Q 214.56 198.33 204.75 199.75
  Q 202.13 200.13 203.21 201.84
  Q 203.41 202.17 203.56 202.75
  L 204.43 206.08
  Z"
/>
<path fill="#d5a100" d="
  M 183.79 189.50
  Q 182.83 190.09 183.25 191.50
  Q 197.42 239.13 206.93 267.94
  Q 204.77 271.36 200.02 273.49
  A 0.45 0.45 -20.6 0 1 199.41 273.22
  Q 187.09 235.18 176.14 196.73
  A 1.09 0.90 58.8 0 1 176.27 195.84
  L 182.42 187.87
  A 0.34 0.29 50.6 0 1 182.94 187.96
  L 183.79 189.50
  Z"
/>
<path fill="#d5a100" d="
  M 981.25 196.21
  Q 992.24 198.19 998.69 201.81
  Q 1026.63 217.52 1028.36 248.01
  Q 1028.91 257.75 1026.53 267.85
  Q 1021.02 291.31 1002.63 308.15
  Q 1013.84 292.52 1017.50 274.75
  Q 1022.50 250.51 1010.13 230.85
  Q 1004.66 222.15 996.62 216.28
  Q 987.45 209.58 976.36 206.86
  Q 967.26 204.62 956.50 205.50
  Q 932.77 207.46 913.31 222.34
  Q 922.66 211.61 935.69 204.69
  Q 957.23 193.24 981.25 196.21
  Z"
/>
<path fill="#005294" d="
  M 47.00 198.71
  L 59.79 220.00
  Q 60.31 221.41 59.29 221.73
  Q 57.98 222.12 57.91 222.16
  Q 48.97 226.99 40.09 232.13
  L 27.50 210.79
  Q 32.07 206.56 37.00 204.50
  Q 42.90 202.03 47.00 198.71
  Z"
/>
<path fill="#7d8067" d="
  M 225.71 227.50
  Q 223.02 232.05 219.39 235.99
  Q 218.24 237.24 218.89 235.67
  Q 221.86 228.51 220.72 220.47
  Q 218.78 206.67 204.43 206.08
  L 203.56 202.75
  Q 203.41 202.17 203.21 201.84
  Q 202.13 200.13 204.75 199.75
  Q 214.56 198.33 221.44 203.06
  Q 226.88 206.80 227.50 214.50
  Q 228.13 222.23 225.71 227.50
  Z"
/>
<path fill="#ffcc00" d="
  M 1002.63 308.15
  Q 991.55 319.20 977.08 324.98
  Q 961.72 331.45 945.67 330.67
  Q 935.47 330.17 926.22 326.50
  Q 900.77 316.43 893.25 288.50
  Q 890.13 276.91 892.43 263.58
  Q 896.56 239.62 913.31 222.34
  Q 932.77 207.46 956.50 205.50
  Q 967.26 204.62 976.36 206.86
  Q 987.45 209.58 996.62 216.28
  Q 1004.66 222.15 1010.13 230.85
  Q 1022.50 250.51 1017.50 274.75
  Q 1013.84 292.52 1002.63 308.15
  Z
  M 935.86 221.90
  Q 930.59 225.55 925.81 232.81
  Q 913.24 251.91 923.57 269.05
  Q 927.60 275.73 934.04 279.90
  Q 940.70 284.22 948.52 285.43
  Q 958.25 286.94 968.13 283.10
  Q 980.40 278.33 988.64 267.16
  Q 999.51 256.75 999.75 242.25
  Q 999.88 234.55 995.25 226.98
  Q 995.16 225.73 993.81 226.81
  Q 991.07 229.01 985.34 235.14
  A 0.99 0.94 62.8 0 0 985.09 235.99
  Q 985.96 241.35 984.29 246.50
  Q 969.25 253.35 957.69 242.81
  Q 948.47 234.41 953.54 222.25
  L 962.20 220.04
  A 2.02 1.24 3.8 0 0 963.06 219.59
  L 971.36 210.94
  A 0.34 0.32 -60.3 0 0 971.23 210.39
  Q 970.74 210.27 970.32 210.44
  Q 949.84 207.25 935.86 221.90
  Z"
/>
<path fill="#0066b4" d="
  M 970.32 210.44
  Q 958.89 212.25 953.54 222.25
  Q 948.47 234.41 957.69 242.81
  Q 969.25 253.35 984.29 246.50
  Q 995.95 240.40 995.25 226.98
  Q 999.88 234.55 999.75 242.25
  Q 999.51 256.75 988.64 267.16
  Q 972.54 279.30 954.36 274.43
  Q 946.61 272.35 940.99 267.95
  Q 934.77 263.08 931.56 255.94
  Q 923.42 237.82 935.86 221.90
  Q 949.84 207.25 970.32 210.44
  Z"
/>
<path fill="#d5a100" d="
  M 722.86 251.14
  L 688.36 220.06
  L 697.67 210.62
  A 0.52 0.49 -46.6 0 1 698.37 210.58
  L 732.38 241.16
  A 0.52 0.51 41.4 0 1 732.43 241.88
  Q 728.01 247.07 722.86 251.14
  Z"
/>
<path fill="#d5a100" d="
  M 970.32 210.44
  Q 970.74 210.27 971.23 210.39
  A 0.34 0.32 -60.3 0 1 971.36 210.94
  L 963.06 219.59
  A 2.02 1.24 3.8 0 1 962.20 220.04
  L 953.54 222.25
  Q 958.89 212.25 970.32 210.44
  Z"
/>
<path fill="#d5a100" d="
  M 391.13 332.13
  Q 404.40 315.41 408.70 294.49
  Q 411.48 280.97 408.79 267.44
  Q 406.01 253.44 397.48 242.65
  Q 392.17 235.93 384.89 231.08
  Q 377.61 226.22 369.25 223.66
  Q 360.36 220.94 349.52 221.18
  Q 322.80 221.78 300.83 238.42
  Q 312.25 225.43 328.44 218.19
  Q 342.24 212.01 356.76 211.33
  Q 367.12 210.84 376.59 213.24
  Q 395.49 218.04 407.39 233.26
  Q 413.48 241.03 416.66 250.84
  Q 423.43 271.65 416.33 293.57
  Q 408.98 316.27 391.13 332.13
  Z"
/>
<path fill="#0068b0" d="
  M 59.79 220.00
  L 75.42 246.23
  L 60.29 263.04
  Q 58.90 264.42 58.16 262.87
  Q 57.67 261.87 57.62 261.79
  Q 48.87 247.18 40.09 232.13
  Q 48.97 226.99 57.91 222.16
  Q 57.98 222.12 59.29 221.73
  Q 60.31 221.41 59.79 220.00
  Z"
/>
<path fill="#ffcc00" d="
  M 391.13 332.13
  Q 377.89 344.53 360.58 350.36
  Q 347.17 354.88 333.01 354.07
  Q 304.15 352.42 287.46 329.25
  Q 272.48 305.90 278.74 278.50
  Q 281.52 266.34 287.71 255.50
  Q 293.05 245.84 300.83 238.42
  Q 322.80 221.78 349.52 221.18
  Q 360.36 220.94 369.25 223.66
  Q 377.61 226.22 384.89 231.08
  Q 392.17 235.93 397.48 242.65
  Q 406.01 253.44 408.79 267.44
  Q 411.48 280.97 408.70 294.49
  Q 404.40 315.41 391.13 332.13
  Z
  M 338.52 231.50
  Q 332.82 234.30 328.47 238.72
  Q 322.88 242.01 318.19 248.44
  Q 313.56 254.77 311.58 261.62
  Q 309.54 268.67 310.98 275.98
  Q 313.41 288.31 323.81 295.94
  Q 340.22 307.97 360.16 300.61
  Q 373.07 295.84 380.69 284.43
  Q 387.21 277.79 389.81 269.56
  Q 394.22 255.65 386.14 243.23
  Q 386.05 242.91 385.81 242.64
  A 0.53 0.47 -43.2 0 0 385.08 242.66
  L 376.60 250.80
  A 2.19 2.15 -26.8 0 0 375.95 252.73
  Q 376.87 258.18 375.93 263.48
  Q 371.47 265.86 366.21 266.50
  Q 350.18 266.98 344.06 253.44
  Q 340.91 246.47 345.00 238.96
  Q 348.10 238.82 352.22 237.42
  Q 352.71 237.25 353.11 236.92
  Q 357.92 232.80 361.30 228.51
  Q 361.53 228.21 361.61 227.95
  Q 361.87 227.01 360.60 227.86
  Q 348.74 226.20 338.52 231.50
  Z"
/>
<path fill="#d5a100" d="
  M 935.86 221.90
  Q 923.42 237.82 931.56 255.94
  Q 934.77 263.08 940.99 267.95
  Q 946.61 272.35 954.36 274.43
  Q 972.54 279.30 988.64 267.16
  Q 980.40 278.33 968.13 283.10
  Q 958.25 286.94 948.52 285.43
  Q 940.70 284.22 934.04 279.90
  Q 927.60 275.73 923.57 269.05
  Q 913.24 251.91 925.81 232.81
  Q 930.59 225.55 935.86 221.90
  Z"
/>
<path fill="#d5a100" d="
  M 684.91 223.21
  Q 667.12 243.41 639.56 243.50
  Q 638.52 243.50 639.24 242.76
  L 648.46 233.25
  Q 668.16 234.00 684.91 223.21
  Z"
/>
<path fill="#d5a100" d="
  M 995.25 226.98
  Q 995.95 240.40 984.29 246.50
  Q 985.96 241.35 985.09 235.99
  A 0.99 0.94 62.8 0 1 985.34 235.14
  Q 991.07 229.01 993.81 226.81
  Q 995.16 225.73 995.25 226.98
  Z"
/>
<path fill="#0064b2" d="
  M 360.60 227.86
  Q 350.33 230.00 345.00 238.96
  Q 340.91 246.47 344.06 253.44
  Q 350.18 266.98 366.21 266.50
  Q 366.40 267.16 366.87 267.66
  A 0.56 0.53 -49.1 0 1 366.90 268.36
  Q 366.34 269.13 366.50 270.50
  Q 366.84 273.37 366.58 277.18
  Q 366.36 280.28 366.58 283.82
  Q 366.83 287.88 366.35 292.00
  Q 349.86 296.37 335.71 287.75
  Q 336.30 277.83 336.04 267.91
  Q 335.84 259.97 336.08 253.59
  Q 336.47 243.19 336.00 239.25
  Q 335.40 234.24 338.52 231.50
  Q 348.74 226.20 360.60 227.86
  Z"
/>
<path fill="#d5a100" d="
  M 360.60 227.86
  Q 361.87 227.01 361.61 227.95
  Q 361.53 228.21 361.30 228.51
  Q 357.92 232.80 353.11 236.92
  Q 352.71 237.25 352.22 237.42
  Q 348.10 238.82 345.00 238.96
  Q 350.33 230.00 360.60 227.86
  Z"
/>
<path fill="#d5a100" d="
  M 491.24 229.20
  L 553.51 254.00
  A 2.60 2.46 -2.9 0 1 554.76 255.07
  Q 570.53 282.31 598.73 294.30
  Q 613.35 300.51 629.20 302.06
  A 1.10 1.10 2.9 0 1 630.19 303.15
  L 630.25 346.77
  A 0.75 0.73 -76.5 0 1 629.18 347.44
  L 620.25 342.79
  Q 620.83 327.49 620.33 312.57
  A 0.76 0.75 -88.2 0 0 619.66 311.85
  Q 596.20 309.28 576.83 297.61
  Q 557.06 285.71 545.12 264.91
  A 2.31 2.26 85.5 0 0 544.03 263.96
  L 482.88 239.50
  A 0.62 0.62 -58.1 0 1 482.65 238.50
  L 491.24 229.20
  Z"
/>
<path fill="#195dad" d="
  M 338.52 231.50
  Q 335.40 234.24 336.00 239.25
  Q 336.47 243.19 336.08 253.59
  Q 335.84 259.97 336.04 267.91
  Q 336.30 277.83 335.71 287.75
  Q 319.54 277.27 320.00 258.75
  Q 320.26 248.02 328.47 238.72
  Q 332.82 234.30 338.52 231.50
  Z"
/>
<path fill="#005498" d="
  M 107.71 263.00
  L 89.54 270.14
  Q 89.12 270.30 88.74 270.71
  Q 87.50 272.00 86.04 270.50
  L 79.69 256.42
  A 1.31 1.31 -23.3 0 0 78.00 255.75
  L 60.29 263.04
  L 75.42 246.23
  L 95.46 237.02
  A 0.80 0.76 -24.2 0 1 96.51 237.39
  L 107.71 263.00
  Z"
/>
<path fill="#d5a100" d="
  M 328.47 238.72
  Q 320.26 248.02 320.00 258.75
  Q 319.54 277.27 335.71 287.75
  Q 349.86 296.37 366.35 292.00
  Q 373.97 289.55 380.69 284.43
  Q 373.07 295.84 360.16 300.61
  Q 340.22 307.97 323.81 295.94
  Q 313.41 288.31 310.98 275.98
  Q 309.54 268.67 311.58 261.62
  Q 313.56 254.77 318.19 248.44
  Q 322.88 242.01 328.47 238.72
  Z"
/>
<path fill="#d5a100" d="
  M 797.77 239.19
  L 785.93 313.89
  A 0.66 0.65 -80.3 0 1 785.16 314.44
  L 777.87 313.11
  Q 783.15 281.77 787.91 250.46
  Q 788.36 247.48 789.80 245.59
  Q 792.92 241.51 797.77 239.19
  Z"
/>
<path fill="#d5a100" d="
  M 386.14 243.23
  Q 387.45 256.81 375.93 263.48
  Q 376.87 258.18 375.95 252.73
  A 2.19 2.15 -26.8 0 1 376.60 250.80
  L 385.08 242.66
  A 0.53 0.47 -43.2 0 1 385.81 242.64
  Q 386.05 242.91 386.14 243.23
  Z"
/>
<path fill="#0070bb" d="
  M 386.14 243.23
  Q 394.22 255.65 389.81 269.56
  Q 387.21 277.79 380.69 284.43
  Q 373.97 289.55 366.35 292.00
  Q 366.83 287.88 366.58 283.82
  Q 366.36 280.28 366.58 277.18
  Q 366.84 273.37 366.50 270.50
  Q 366.34 269.13 366.90 268.36
  A 0.56 0.53 -49.1 0 0 366.87 267.66
  Q 366.40 267.16 366.21 266.50
  Q 371.47 265.86 375.93 263.48
  Q 387.45 256.81 386.14 243.23
  Z"
/>
<path fill="#d5a100" d="
  M 850.28 251.19
  L 829.94 302.92
  Q 829.53 303.98 829.07 302.95
  L 826.22 296.57
  L 840.53 260.78
  Q 840.86 259.97 841.47 259.39
  Q 844.90 256.14 847.69 252.94
  Q 849.17 251.23 850.28 251.19
  Z"
/>
<path fill="#d5a100" d="
  M 1068.47 256.44
  Q 1067.89 258.28 1067.31 261.56
  Q 1058.49 311.92 1049.38 362.90
  A 0.87 0.87 -80.3 0 1 1048.38 363.61
  L 1041.27 362.41
  L 1058.33 267.44
  Q 1058.70 265.35 1060.04 263.77
  Q 1063.94 259.22 1068.47 256.44
  Z"
/>
<path fill="#004b8b" d="
  M 107.71 263.00
  L 113.46 275.75
  Q 110.76 276.48 108.31 277.77
  Q 104.78 279.62 103.38 280.23
  Q 100.40 281.50 97.55 283.04
  Q 95.15 284.34 92.64 285.73
  L 86.04 270.50
  Q 87.50 272.00 88.74 270.71
  Q 89.12 270.30 89.54 270.14
  L 107.71 263.00
  Z"
/>
<path fill="#d5a100" d="
  M 468.44 267.94
  L 468.75 350.86
  A 0.89 0.86 86.3 0 1 468.00 351.74
  L 458.92 352.99
  L 459.00 277.81
  A 2.04 1.64 72.3 0 1 459.53 276.44
  L 468.44 267.94
  Z"
/>
<path fill="#004281" d="
  M 113.46 275.75
  L 123.05 297.23
  Q 121.40 297.08 119.44 298.44
  Q 112.28 303.39 101.79 306.49
  L 92.64 285.73
  Q 95.15 284.34 97.55 283.04
  Q 100.40 281.50 103.38 280.23
  Q 104.78 279.62 108.31 277.77
  Q 110.76 276.48 113.46 275.75
  Z"
/>
<path fill="#0b285f" d="
  M 710.54 322.50
  Q 698.94 328.87 693.56 331.31
  Q 692.08 331.99 692.00 333.21
  Q 691.21 333.45 690.66 333.04
  A 0.95 0.72 -70.8 0 1 690.39 332.20
  L 696.31 296.65
  Q 696.47 295.69 695.65 296.20
  Q 674.44 309.30 650.54 313.50
  L 650.56 303.34
  A 1.00 1.00 -3.2 0 1 651.45 302.35
  Q 686.79 298.10 716.75 281.14
  Q 717.37 280.79 717.25 281.49
  L 710.54 322.50
  Z"
/>
<path fill="#004281" d="
  M 262.25 321.21
  Q 260.35 320.29 258.25 321.50
  Q 256.11 322.73 254.01 324.04
  Q 253.93 324.09 250.80 325.57
  Q 248.12 326.83 247.46 330.00
  L 240.28 302.39
  A 1.68 1.66 -25.8 0 1 240.91 300.62
  Q 249.47 294.31 258.34 285.82
  Q 258.95 285.22 258.88 286.08
  Q 257.21 304.72 262.25 321.21
  Z"
/>
<path fill="#d5a100" d="
  M 215.06 292.17
  L 242.47 396.94
  A 0.66 0.66 73.9 0 1 242.03 397.74
  L 231.48 401.16
  L 204.75 300.19
  A 1.05 1.02 65.3 0 1 205.15 299.07
  L 215.06 292.17
  Z"
/>
<path fill="#003874" d="
  M 123.05 297.23
  L 130.42 313.60
  Q 120.26 316.50 111.01 321.57
  A 0.97 0.79 42.0 0 1 110.16 321.53
  Q 109.38 321.10 108.46 321.50
  L 101.79 306.49
  Q 112.28 303.39 119.44 298.44
  Q 121.40 297.08 123.05 297.23
  Z"
/>
<path fill="#053570" d="
  M 532.21 321.75
  L 650.46 380.25
  L 630.81 391.07
  A 1.00 0.94 43.2 0 1 629.90 391.07
  L 487.87 320.81
  L 487.76 301.22
  A 0.86 0.84 13.2 0 1 489.00 300.47
  L 532.21 321.75
  Z"
/>
<path fill="#053570" d="
  M 944.77 382.14
  L 925.81 392.60
  A 3.23 3.14 35.0 0 1 923.71 392.94
  L 825.96 375.61
  A 1.32 1.29 1.9 0 1 824.88 374.48
  L 821.95 350.17
  A 0.67 0.66 72.4 0 0 820.98 349.66
  L 806.28 357.72
  A 0.55 0.55 0.0 0 1 805.54 357.50
  L 795.46 338.70
  A 0.81 0.80 -28.5 0 0 794.37 338.39
  L 778.69 346.78
  A 1.47 1.43 34.9 0 1 777.77 346.93
  L 692.00 333.21
  Q 692.08 331.99 693.56 331.31
  Q 698.94 328.87 710.54 322.50
  L 797.66 336.21
  A 0.79 0.79 8.7 0 0 798.56 335.55
  L 803.03 306.31
  Q 803.28 304.69 804.06 306.14
  L 825.75 346.33
  Q 826.16 347.09 826.57 346.32
  L 839.53 321.38
  Q 840.18 320.14 840.34 321.53
  L 845.24 363.95
  A 0.83 0.80 2.0 0 0 845.91 364.65
  L 944.77 382.14
  Z"
/>
<path fill="#00316b" d="
  M 130.42 313.60
  L 138.91 332.72
  L 121.53 339.62
  Q 121.11 339.79 120.76 340.21
  Q 118.96 342.40 116.75 340.29
  L 108.46 321.50
  Q 109.38 321.10 110.16 321.53
  A 0.97 0.79 42.0 0 0 111.01 321.57
  Q 120.26 316.50 130.42 313.60
  Z"
/>
<path fill="#00316b" d="
  M 262.25 321.21
  Q 265.95 331.67 271.96 341.00
  L 254.21 350.25
  L 252.00 347.29
  L 247.46 330.00
  Q 248.12 326.83 250.80 325.57
  Q 253.93 324.09 254.01 324.04
  Q 256.11 322.73 258.25 321.50
  Q 260.35 320.29 262.25 321.21
  Z"
/>
<path fill="#0b285f" d="
  M 138.91 332.72
  L 175.79 415.25
  L 186.00 437.96
  A 0.57 0.57 69.0 0 0 186.69 438.27
  L 266.17 413.00
  Q 262.32 416.06 251.06 423.56
  Q 247.70 425.80 245.80 426.41
  Q 206.47 438.97 166.76 451.83
  A 0.90 0.89 -20.5 0 1 165.67 451.34
  L 116.75 340.29
  Q 118.96 342.40 120.76 340.21
  Q 121.11 339.79 121.53 339.62
  L 138.91 332.72
  Z"
/>
<path fill="#321e73" d="
  M 987.29 374.25
  L 967.28 385.12
  L 970.70 350.11
  Q 980.02 346.03 988.64 340.25
  Q 989.36 339.11 990.44 339.21
  A 0.55 0.49 -84.6 0 1 990.88 339.81
  L 987.29 374.25
  Z"
/>
<path fill="#0b285f" d="
  M 988.64 340.25
  Q 980.02 346.03 970.70 350.11
  Q 956.62 356.42 941.29 357.50
  L 939.86 349.23
  A 0.52 0.49 -2.4 0 1 940.42 348.66
  Q 960.82 350.32 979.00 343.79
  L 988.64 340.25
  Z"
/>
<path fill="#0b285f" d="
  M 271.96 341.00
  Q 277.58 349.21 285.53 355.99
  Q 303.09 370.68 325.28 373.72
  Q 334.65 375.01 345.24 373.97
  Q 379.91 370.56 405.94 345.46
  Q 406.41 345.00 406.47 345.65
  L 409.75 380.73
  A 0.47 0.45 -6.5 0 0 410.28 381.14
  L 486.48 370.10
  L 467.91 380.14
  Q 467.18 380.54 466.21 380.68
  L 390.07 391.96
  A 0.69 0.68 -6.6 0 1 389.28 391.34
  L 386.72 362.46
  Q 386.64 361.61 386.00 362.16
  Q 375.38 371.11 363.38 377.59
  Q 350.43 384.58 336.16 387.21
  Q 326.41 389.01 316.25 388.36
  Q 276.02 385.79 254.21 350.25
  L 271.96 341.00
  Z"
/>
<path fill="#053570" d="
  M 987.29 374.25
  L 1052.78 383.57
  A 0.61 0.59 3.4 0 1 1053.31 384.15
  L 1053.75 410.03
  A 1.13 1.11 -81.8 0 0 1054.53 411.09
  L 1122.97 432.62
  L 1103.07 443.06
  A 1.89 1.85 39.3 0 1 1101.60 443.19
  L 1034.26 421.68
  A 0.74 0.73 -81.8 0 1 1033.75 420.99
  L 1032.96 395.06
  A 0.61 0.60 2.9 0 0 1032.43 394.49
  L 967.28 385.12
  L 987.29 374.25
  Z"
/>
</svg>
