<?xml version="1.0" standalone="no"?>
<!DOCTYPE svg PUBLIC "-//W3C//DTD SVG 20010904//EN"
 "http://www.w3.org/TR/2001/REC-SVG-20010904/DTD/svg10.dtd">
<svg version="1.0" xmlns="http://www.w3.org/2000/svg"
 width="268.000000pt" height="512.000000pt" viewBox="0 0 268.000000 512.000000"
 preserveAspectRatio="xMidYMid meet">
<metadata>
Created by potrace 1.16, written by Peter Selinger 2001-2019
</metadata>
<g transform="translate(0.000000,512.000000) scale(0.100000,-0.100000)"
fill="#fff" stroke="none">
<path d="M472 4969 c-36 -7 -80 -48 -100 -94 -14 -31 -16 -230 -7 -725 2 -118
6 -408 10 -645 3 -236 7 -572 10 -745 5 -317 11 -705 20 -1360 13 -886 16
-1047 26 -1083 12 -44 59 -101 103 -124 36 -19 67 -22 351 -28 116 -2 293 -7
395 -10 102 -3 273 -7 380 -10 107 -2 256 -6 330 -8 74 -2 149 -2 167 1 32 4
102 63 123 102 11 20 12 258 5 695 -2 99 -6 378 -9 620 -3 242 -8 580 -11 750
-5 296 -9 602 -20 1365 -13 932 -17 1088 -26 1123 -12 47 -71 113 -118 134
-27 11 -84 16 -226 19 -104 2 -269 6 -365 9 -96 3 -186 5 -200 4 -14 0 -29 -1
-35 0 -341 13 -766 18 -803 10z m763 -384 c110 -3 294 -7 408 -9 115 -2 210
-6 212 -8 3 -2 7 -167 11 -366 6 -371 6 -369 -29 -363 -33 6 -97 5 -97 0 0 -4
-12 -4 -27 -1 -34 9 -125 8 -174 -2 -40 -7 -107 -67 -114 -100 -15 -79 -15
-108 4 -145 22 -43 80 -97 120 -112 14 -6 94 -11 177 -12 l152 -2 2 -220 c1
-121 3 -287 3 -370 2 -129 0 -149 -13 -146 -37 8 -270 7 -312 -2 -84 -18 -128
-79 -128 -177 0 -34 7 -58 26 -86 26 -39 74 -88 74 -77 0 3 6 0 14 -6 13 -11
87 -24 124 -22 14 0 61 0 157 -1 l70 -1 3 -361 c2 -198 5 -363 7 -366 2 -4
-71 -5 -163 -3 -151 2 -171 0 -207 -18 -57 -29 -77 -61 -85 -136 -6 -58 -3
-70 19 -113 22 -42 81 -103 81 -85 0 3 10 0 22 -6 21 -11 110 -18 266 -20 l72
-1 1 -166 c1 -92 2 -257 3 -367 l1 -200 -25 3 c-14 1 -38 2 -55 1 -16 0 -37
-1 -45 -1 -8 0 -36 2 -62 4 -27 2 -48 0 -48 -5 0 -4 -4 -6 -9 -2 -6 3 -88 8
-183 10 -437 13 -577 16 -630 17 -32 0 -60 3 -63 8 -5 8 -12 343 -20 940 -5
398 -10 766 -20 1400 -3 190 -7 514 -10 720 -3 206 -7 513 -11 682 l-5 306
153 -4 c84 -2 243 -6 353 -9z"/>
</g>
</svg>
