<?xml version="1.0" standalone="no"?>
<!DOCTYPE svg PUBLIC "-//W3C//DTD SVG 20010904//EN"
 "http://www.w3.org/TR/2001/REC-SVG-20010904/DTD/svg10.dtd">
<svg version="1.0" xmlns="http://www.w3.org/2000/svg"
 width="256.000000pt" height="256.000000pt" viewBox="0 0 256.000000 256.000000"
 preserveAspectRatio="xMidYMid meet">

<g transform="translate(0.000000,256.000000) scale(0.100000,-0.100000)"
fill="#000000" stroke="none" opacity="0.1">
<path d="M1153 2549 c-499 -49 -936 -402 -1088 -879 -29 -93 -55 -215 -55
-261 l0 -29 324 0 324 0 6 34 c10 54 70 166 122 226 246 288 669 306 937 40
64 -64 85 -94 122 -173 25 -52 45 -102 45 -111 0 -14 32 -16 335 -16 l335 0
-5 28 c-20 128 -32 181 -62 272 -80 243 -236 461 -441 615 -96 72 -238 149
-350 189 -158 56 -373 82 -549 65z"/>
<path d="M1193 1709 c-157 -27 -295 -124 -361 -254 -109 -216 -42 -465 161
-604 68 -46 149 -72 247 -78 164 -10 293 40 403 156 159 169 168 419 21 603
-105 132 -303 207 -471 177z"/>
<path d="M14 1103 c2 -10 8 -38 11 -63 20 -132 107 -340 202 -483 60 -90 226
-258 317 -321 140 -97 337 -180 503 -212 118 -24 347 -24 465 -1 459 90 833
414 978 846 26 77 60 214 60 242 0 6 -125 8 -326 7 l-326 -3 -17 -55 c-50
-160 -174 -305 -322 -377 -100 -48 -176 -66 -284 -66 -110 0 -185 17 -284 65
-151 72 -299 249 -329 393 l-8 40 -323 3 c-304 2 -322 1 -317 -15z"/>
</g>
</svg>
