<?xml version="1.0" encoding="UTF-8" standalone="no"?>
<!DOCTYPE svg PUBLIC "-//W3C//DTD SVG 1.1//EN" "http://www.w3.org/Graphics/SVG/1.1/DTD/svg11.dtd">
<svg xmlns="http://www.w3.org/2000/svg" version="1.1" viewBox="0 0 512 512">
<path stroke="#f79f98" stroke-width="2.00" fill="none" stroke-linecap="butt" vector-effect="non-scaling-stroke" d="
  M 255.65 225.40
  Q 223.59 193.56 191.69 161.56
  C 181.07 150.91 161.91 155.15 156.81 169.31
  Q 152.20 182.13 162.26 192.24
  Q 193.63 223.75 225.43 255.56
  A 0.62 0.62 -0.0 0 1 225.43 256.44
  Q 196.03 285.84 166.52 315.35
  C 157.56 324.32 152.00 332.13 157.56 344.19
  C 164.00 358.13 181.80 360.33 192.44 349.69
  Q 223.94 318.19 255.34 286.78
  A 0.94 0.94 45.4 0 1 256.66 286.78
  Q 286.75 316.87 316.70 346.83
  Q 322.49 352.62 326.29 354.42
  C 335.50 358.80 346.49 355.82 352.43 347.61
  C 359.24 338.20 357.08 326.96 349.19 319.06
  Q 318.19 288.06 286.86 256.73
  A 1.03 1.03 45.2 0 1 286.86 255.27
  Q 315.50 226.62 343.66 198.46
  Q 352.00 190.12 353.31 188.08
  C 358.83 179.46 356.77 166.49 348.61 160.25
  C 339.75 153.48 327.89 153.97 319.81 162.06
  Q 288.16 193.81 256.36 225.39
  A 0.51 0.49 -45.0 0 1 255.65 225.40"
/>
<path fill="#f44336" d="
  M 249.56 0.00
  L 262.31 0.00
  L 267.50 0.21
  C 402.68 7.42 508.29 115.11 512.00 250.81
  L 512.00 261.56
  C 507.76 400.35 397.99 508.82 259.69 512.00
  L 249.69 512.00
  C 112.41 507.69 3.77 398.33 0.00 261.69
  L 0.00 250.44
  L 0.21 244.50
  C 8.17 108.68 113.61 5.31 249.56 0.00
  Z
  M 255.65 225.40
  Q 223.59 193.56 191.69 161.56
  C 181.07 150.91 161.91 155.15 156.81 169.31
  Q 152.20 182.13 162.26 192.24
  Q 193.63 223.75 225.43 255.56
  A 0.62 0.62 -0.0 0 1 225.43 256.44
  Q 196.03 285.84 166.52 315.35
  C 157.56 324.32 152.00 332.13 157.56 344.19
  C 164.00 358.13 181.80 360.33 192.44 349.69
  Q 223.94 318.19 255.34 286.78
  A 0.94 0.94 45.4 0 1 256.66 286.78
  Q 286.75 316.87 316.70 346.83
  Q 322.49 352.62 326.29 354.42
  C 335.50 358.80 346.49 355.82 352.43 347.61
  C 359.24 338.20 357.08 326.96 349.19 319.06
  Q 318.19 288.06 286.86 256.73
  A 1.03 1.03 45.2 0 1 286.86 255.27
  Q 315.50 226.62 343.66 198.46
  Q 352.00 190.12 353.31 188.08
  C 358.83 179.46 356.77 166.49 348.61 160.25
  C 339.75 153.48 327.89 153.97 319.81 162.06
  Q 288.16 193.81 256.36 225.39
  A 0.51 0.49 -45.0 0 1 255.65 225.40
  Z"
/>
<path fill="#fafafa" d="
  M 256.36 225.39
  Q 288.16 193.81 319.81 162.06
  C 327.89 153.97 339.75 153.48 348.61 160.25
  C 356.77 166.49 358.83 179.46 353.31 188.08
  Q 352.00 190.12 343.66 198.46
  Q 315.50 226.62 286.86 255.27
  A 1.03 1.03 0.0 0 0 286.86 256.73
  Q 318.19 288.06 349.19 319.06
  C 357.08 326.96 359.24 338.20 352.43 347.61
  C 346.49 355.82 335.50 358.80 326.29 354.42
  Q 322.49 352.62 316.70 346.83
  Q 286.75 316.87 256.66 286.78
  A 0.94 0.94 44.7 0 0 255.34 286.78
  Q 223.94 318.19 192.44 349.69
  C 181.80 360.33 164.00 358.13 157.56 344.19
  C 152.00 332.13 157.56 324.32 166.52 315.35
  Q 196.03 285.84 225.43 256.44
  A 0.62 0.62 0.0 0 0 225.43 255.56
  Q 193.63 223.75 162.26 192.24
  Q 152.20 182.13 156.81 169.31
  C 161.91 155.15 181.07 150.91 191.69 161.56
  Q 223.59 193.56 255.65 225.40
  A 0.50 0.50 0.0 0 0 256.36 225.39
  Z"
/>
</svg>
