<?xml version="1.0" standalone="no"?>
<!DOCTYPE svg PUBLIC "-//W3C//DTD SVG 20010904//EN"
 "http://www.w3.org/TR/2001/REC-SVG-20010904/DTD/svg10.dtd">
<svg version="1.0" xmlns="http://www.w3.org/2000/svg"
 width="512.000000pt" height="512.000000pt" viewBox="0 0 512.000000 512.000000"
 preserveAspectRatio="xMidYMid meet">
<metadata>
Created by potrace 1.16, written by Peter Selinger 2001-2019
</metadata>
<g transform="translate(0.000000,512.000000) scale(0.100000,-0.100000)"
fill="#fff" stroke="none">
<path d="M2371 5100 c-142 -38 -255 -105 -352 -207 -150 -157 -217 -338 -206
-557 8 -169 54 -296 155 -426 l51 -65 -597 -5 -597 -5 -51 -27 c-59 -31 -119
-94 -144 -152 -11 -24 -137 -712 -305 -1666 -312 -1767 -304 -1714 -257 -1812
30 -60 90 -120 150 -150 l47 -23 2295 0 2295 0 47 23 c60 30 120 90 150 150
47 98 55 45 -257 1812 -168 954 -294 1642 -305 1666 -25 58 -85 121 -144 152
l-51 27 -597 5 -597 5 40 50 c104 130 158 271 166 435 12 235 -67 434 -235
591 -83 78 -172 131 -277 166 -111 36 -314 43 -424 13z m312 -215 c217 -56
377 -242 403 -466 16 -138 -48 -307 -156 -416 -104 -104 -222 -153 -370 -153
-148 0 -266 49 -370 153 -76 76 -133 185 -150 289 -62 359 291 685 643 593z
m1577 -1293 c17 -18 31 -46 38 -77 5 -28 135 -760 288 -1628 l278 -1578 -18
-33 c-10 -19 -29 -39 -42 -45 -35 -16 -4453 -16 -4488 0 -13 6 -32 26 -42 45
l-18 33 278 1578 c153 868 283 1600 288 1628 7 31 21 59 38 77 l28 28 1672 0
1672 0 28 -28z"/>
</g>
</svg>
